<svg xmlns="http://www.w3.org/2000/svg" viewBox="113 56 414 414">
<rect x="113" y="56" width="414" height="414" fill="none"/>
<clipPath id="fv"><rect x="113" y="56" width="414" height="414"/></clipPath>
<g clip-path="url(#fv)">
<path d="M487.00,56.00 486.98,58.38 486.93,60.77 486.85,63.15 486.73,65.53 486.57,67.91 486.39,70.29 486.17,72.67 485.91,75.04 485.62,77.40 485.30,79.77 484.94,82.12 484.55,84.48 484.13,86.82 483.67,89.16 483.18,91.50 482.66,93.82 482.10,96.14 481.51,98.45 480.89,100.76 480.24,103.05 479.55,105.33 478.83,107.61 478.07,109.87 477.29,112.12 476.47,114.36 475.62,116.59 474.74,118.80 473.83,121.01 472.88,123.20 471.91,125.37 470.90,127.54 469.87,129.68 468.80,131.82 467.70,133.93 466.57,136.03 465.41,138.12 464.23,140.19 463.01,142.24 461.76,144.27 460.49,146.29 459.19,148.28 457.85,150.26 456.49,152.22 455.11,154.16 453.69,156.08 452.25,157.98 450.78,159.86 449.28,161.71 447.76,163.55 446.21,165.36 444.64,167.15 443.04,168.92 441.41,170.67 439.76,172.39 438.09,174.09 436.39,175.76 434.67,177.41 432.92,179.04 431.15,180.64 429.36,182.21 427.55,183.76 425.71,185.28 423.86,186.78 421.98,188.25 420.08,189.69 418.16,191.11 416.22,192.49 414.26,193.85 412.28,195.19 410.29,196.49 408.27,197.76 406.24,199.01 404.19,200.23 402.12,201.41 400.03,202.57 397.93,203.70 395.82,204.80 393.68,205.87 391.54,206.90 389.37,207.91 387.20,208.88 385.01,209.83 382.80,210.74 380.59,211.62 378.36,212.47 376.12,213.29 373.87,214.07 371.61,214.83 369.33,215.55 367.05,216.24 364.76,216.89 362.45,217.51 360.14,218.10 357.82,218.66 355.50,219.18 353.16,219.67 350.82,220.13 348.48,220.55 346.12,220.94 343.77,221.30 341.40,221.62 339.04,221.91 336.67,222.17 334.29,222.39 331.91,222.57 329.53,222.73 327.15,222.85 324.77,222.93 322.38,222.98 320.00,223.00 317.62,222.98 315.23,222.93 312.85,222.85 310.47,222.73 308.09,222.57 305.71,222.39 303.33,222.17 300.96,221.91 298.60,221.62 296.23,221.30 293.88,220.94 291.52,220.55 289.18,220.13 286.84,219.67 284.50,219.18 282.18,218.66 279.86,218.10 277.55,217.51 275.24,216.89 272.95,216.24 270.67,215.55 268.39,214.83 266.13,214.07 263.88,213.29 261.64,212.47 259.41,211.62 257.20,210.74 254.99,209.83 252.80,208.88 250.63,207.91 248.46,206.90 246.32,205.87 244.18,204.80 242.07,203.70 239.97,202.57 237.88,201.41 235.81,200.23 233.76,199.01 231.73,197.76 229.71,196.49 227.72,195.19 225.74,193.85 223.78,192.49 221.84,191.11 219.92,189.69 218.02,188.25 216.14,186.78 214.29,185.28 212.45,183.76 210.64,182.21 208.85,180.64 207.08,179.04 205.33,177.41 203.61,175.76 201.91,174.09 200.24,172.39 198.59,170.67 196.96,168.92 195.36,167.15 193.79,165.36 192.24,163.55 190.72,161.71 189.22,159.86 187.75,157.98 186.31,156.08 184.89,154.16 183.51,152.22 182.15,150.26 180.81,148.28 179.51,146.29 178.24,144.27 176.99,142.24 175.77,140.19 174.59,138.12 173.43,136.03 172.30,133.93 171.20,131.82 170.13,129.68 169.10,127.54 168.09,125.37 167.12,123.20 166.17,121.01 165.26,118.80 164.38,116.59 163.53,114.36 162.71,112.12 161.93,109.87 161.17,107.61 160.45,105.33 159.76,103.05 159.11,100.76 158.49,98.45 157.90,96.14 157.34,93.82 156.82,91.50 156.33,89.16 155.87,86.82 155.45,84.48 155.06,82.12 154.70,79.77 154.38,77.40 154.09,75.04 153.83,72.67 153.61,70.29 153.43,67.91 153.27,65.53 153.15,63.15 153.07,60.77 153.02,58.38 153.00,56.00 153.00,30.00 487.00,30.00 Z" fill="#F4C61C"/>
<path d="M153.00,470.00 153.02,467.62 153.07,465.23 153.15,462.85 153.27,460.47 153.43,458.09 153.61,455.71 153.83,453.33 154.09,450.96 154.38,448.60 154.70,446.23 155.06,443.88 155.45,441.52 155.87,439.18 156.33,436.84 156.82,434.50 157.34,432.18 157.90,429.86 158.49,427.55 159.11,425.24 159.76,422.95 160.45,420.67 161.17,418.39 161.93,416.13 162.71,413.88 163.53,411.64 164.38,409.41 165.26,407.20 166.17,404.99 167.12,402.80 168.09,400.63 169.10,398.46 170.13,396.32 171.20,394.18 172.30,392.07 173.43,389.97 174.59,387.88 175.77,385.81 176.99,383.76 178.24,381.73 179.51,379.71 180.81,377.72 182.15,375.74 183.51,373.78 184.89,371.84 186.31,369.92 187.75,368.02 189.22,366.14 190.72,364.29 192.24,362.45 193.79,360.64 195.36,358.85 196.96,357.08 198.59,355.33 200.24,353.61 201.91,351.91 203.61,350.24 205.33,348.59 207.08,346.96 208.85,345.36 210.64,343.79 212.45,342.24 214.29,340.72 216.14,339.22 218.02,337.75 219.92,336.31 221.84,334.89 223.78,333.51 225.74,332.15 227.72,330.81 229.71,329.51 231.73,328.24 233.76,326.99 235.81,325.77 237.88,324.59 239.97,323.43 242.07,322.30 244.18,321.20 246.32,320.13 248.46,319.10 250.63,318.09 252.80,317.12 254.99,316.17 257.20,315.26 259.41,314.38 261.64,313.53 263.88,312.71 266.13,311.93 268.39,311.17 270.67,310.45 272.95,309.76 275.24,309.11 277.55,308.49 279.86,307.90 282.18,307.34 284.50,306.82 286.84,306.33 289.18,305.87 291.52,305.45 293.88,305.06 296.23,304.70 298.60,304.38 300.96,304.09 303.33,303.83 305.71,303.61 308.09,303.43 310.47,303.27 312.85,303.15 315.23,303.07 317.62,303.02 320.00,303.00 322.38,303.02 324.77,303.07 327.15,303.15 329.53,303.27 331.91,303.43 334.29,303.61 336.67,303.83 339.04,304.09 341.40,304.38 343.77,304.70 346.12,305.06 348.48,305.45 350.82,305.87 353.16,306.33 355.50,306.82 357.82,307.34 360.14,307.90 362.45,308.49 364.76,309.11 367.05,309.76 369.33,310.45 371.61,311.17 373.87,311.93 376.12,312.71 378.36,313.53 380.59,314.38 382.80,315.26 385.01,316.17 387.20,317.12 389.37,318.09 391.54,319.10 393.68,320.13 395.82,321.20 397.93,322.30 400.03,323.43 402.12,324.59 404.19,325.77 406.24,326.99 408.27,328.24 410.29,329.51 412.28,330.81 414.26,332.15 416.22,333.51 418.16,334.89 420.08,336.31 421.98,337.75 423.86,339.22 425.71,340.72 427.55,342.24 429.36,343.79 431.15,345.36 432.92,346.96 434.67,348.59 436.39,350.24 438.09,351.91 439.76,353.61 441.41,355.33 443.04,357.08 444.64,358.85 446.21,360.64 447.76,362.45 449.28,364.29 450.78,366.14 452.25,368.02 453.69,369.92 455.11,371.84 456.49,373.78 457.85,375.74 459.19,377.72 460.49,379.71 461.76,381.73 463.01,383.76 464.23,385.81 465.41,387.88 466.57,389.97 467.70,392.07 468.80,394.18 469.87,396.32 470.90,398.46 471.91,400.63 472.88,402.80 473.83,404.99 474.74,407.20 475.62,409.41 476.47,411.64 477.29,413.88 478.07,416.13 478.83,418.39 479.55,420.67 480.24,422.95 480.89,425.24 481.51,427.55 482.10,429.86 482.66,432.18 483.18,434.50 483.67,436.84 484.13,439.18 484.55,441.52 484.94,443.88 485.30,446.23 485.62,448.60 485.91,450.96 486.17,453.33 486.39,455.71 486.57,458.09 486.73,460.47 486.85,462.85 486.93,465.23 486.98,467.62 487.00,470.00 487.00,496.00 153.00,496.00 Z" fill="#D62828"/>
<path d="M113.00,496.00 113.00,470.00 113.02,467.04 113.08,464.09 113.19,461.13 113.34,458.18 113.53,455.23 113.76,452.29 114.03,449.34 114.35,446.40 114.71,443.47 115.11,440.54 115.55,437.62 116.03,434.70 116.56,431.79 117.12,428.89 117.73,426.00 118.38,423.12 119.07,420.24 119.80,417.38 120.57,414.52 121.38,411.68 122.24,408.85 123.13,406.03 124.06,403.23 125.04,400.44 126.05,397.66 127.10,394.90 128.20,392.15 129.33,389.42 130.50,386.71 131.71,384.01 132.95,381.33 134.24,378.67 135.56,376.02 136.92,373.40 138.32,370.80 139.76,368.21 141.23,365.65 142.74,363.11 144.28,360.59 145.86,358.09 147.48,355.61 149.13,353.16 150.81,350.73 152.53,348.33 154.29,345.95 156.08,343.60 157.90,341.27 159.75,338.97 161.64,336.69 163.56,334.44 165.51,332.22 167.49,330.03 169.51,327.87 171.55,325.73 173.63,323.63 175.73,321.55 177.87,319.51 180.03,317.49 182.22,315.51 184.44,313.56 186.69,311.64 188.97,309.75 191.27,307.90 193.60,306.08 195.95,304.29 198.33,302.53 200.73,300.81 203.16,299.13 205.61,297.48 208.09,295.86 210.59,294.28 213.11,292.74 215.65,291.23 218.21,289.76 220.80,288.32 223.40,286.92 226.02,285.56 228.67,284.24 231.33,282.95 234.01,281.71 236.71,280.50 239.42,279.33 242.15,278.20 244.90,277.10 247.66,276.05 250.44,275.04 253.23,274.06 256.03,273.13 258.85,272.24 261.68,271.38 264.52,270.57 267.38,269.80 270.24,269.07 273.12,268.38 276.00,267.73 278.89,267.12 281.79,266.56 284.70,266.03 287.62,265.55 290.54,265.11 293.47,264.71 296.40,264.35 299.34,264.03 302.29,263.76 305.23,263.53 308.18,263.34 311.13,263.19 314.09,263.08 317.04,263.02 320.00,263.00 322.96,263.02 325.91,263.08 328.87,263.19 331.82,263.34 334.77,263.53 337.71,263.76 340.66,264.03 343.60,264.35 346.53,264.71 349.46,265.11 352.38,265.55 355.30,266.03 358.21,266.56 361.11,267.12 364.00,267.73 366.88,268.38 369.76,269.07 372.62,269.80 375.48,270.57 378.32,271.38 381.15,272.24 383.97,273.13 386.77,274.06 389.56,275.04 392.34,276.05 395.10,277.10 397.85,278.20 400.58,279.33 403.29,280.50 405.99,281.71 408.67,282.95 411.33,284.24 413.98,285.56 416.60,286.92 419.20,288.32 421.79,289.76 424.35,291.23 426.89,292.74 429.41,294.28 431.91,295.86 434.39,297.48 436.84,299.13 439.27,300.81 441.67,302.53 444.05,304.29 446.40,306.08 448.73,307.90 451.03,309.75 453.31,311.64 455.56,313.56 457.78,315.51 459.97,317.49 462.13,319.51 464.27,321.55 466.37,323.63 468.45,325.73 470.49,327.87 472.51,330.03 474.49,332.22 476.44,334.44 478.36,336.69 480.25,338.97 482.10,341.27 483.92,343.60 485.71,345.95 487.47,348.33 489.19,350.73 490.87,353.16 492.52,355.61 494.14,358.09 495.72,360.59 497.26,363.11 498.77,365.65 500.24,368.21 501.68,370.80 503.08,373.40 504.44,376.02 505.76,378.67 507.05,381.33 508.29,384.01 509.50,386.71 510.67,389.42 511.80,392.15 512.90,394.90 513.95,397.66 514.96,400.44 515.94,403.23 516.87,406.03 517.76,408.85 518.62,411.68 519.43,414.52 520.20,417.38 520.93,420.24 521.62,423.12 522.27,426.00 522.88,428.89 523.44,431.79 523.97,434.70 524.45,437.62 524.89,440.54 525.29,443.47 525.65,446.40 525.97,449.34 526.24,452.29 526.47,455.23 526.66,458.18 526.81,461.13 526.92,464.09 526.98,467.04 527.00,470.00 527.00,496.00 487.00,496.00 487.00,470.00 486.98,467.62 486.93,465.23 486.85,462.85 486.73,460.47 486.57,458.09 486.39,455.71 486.17,453.33 485.91,450.96 485.62,448.60 485.30,446.23 484.94,443.88 484.55,441.52 484.13,439.18 483.67,436.84 483.18,434.50 482.66,432.18 482.10,429.86 481.51,427.55 480.89,425.24 480.24,422.95 479.55,420.67 478.83,418.39 478.07,416.13 477.29,413.88 476.47,411.64 475.62,409.41 474.74,407.20 473.83,404.99 472.88,402.80 471.91,400.63 470.90,398.46 469.87,396.32 468.80,394.18 467.70,392.07 466.57,389.97 465.41,387.88 464.23,385.81 463.01,383.76 461.76,381.73 460.49,379.71 459.19,377.72 457.85,375.74 456.49,373.78 455.11,371.84 453.69,369.92 452.25,368.02 450.78,366.14 449.28,364.29 447.76,362.45 446.21,360.64 444.64,358.85 443.04,357.08 441.41,355.33 439.76,353.61 438.09,351.91 436.39,350.24 434.67,348.59 432.92,346.96 431.15,345.36 429.36,343.79 427.55,342.24 425.71,340.72 423.86,339.22 421.98,337.75 420.08,336.31 418.16,334.89 416.22,333.51 414.26,332.15 412.28,330.81 410.29,329.51 408.27,328.24 406.24,326.99 404.19,325.77 402.12,324.59 400.03,323.43 397.93,322.30 395.82,321.20 393.68,320.13 391.54,319.10 389.37,318.09 387.20,317.12 385.01,316.17 382.80,315.26 380.59,314.38 378.36,313.53 376.12,312.71 373.87,311.93 371.61,311.17 369.33,310.45 367.05,309.76 364.76,309.11 362.45,308.49 360.14,307.90 357.82,307.34 355.50,306.82 353.16,306.33 350.82,305.87 348.48,305.45 346.12,305.06 343.77,304.70 341.40,304.38 339.04,304.09 336.67,303.83 334.29,303.61 331.91,303.43 329.53,303.27 327.15,303.15 324.77,303.07 322.38,303.02 320.00,303.00 317.62,303.02 315.23,303.07 312.85,303.15 310.47,303.27 308.09,303.43 305.71,303.61 303.33,303.83 300.96,304.09 298.60,304.38 296.23,304.70 293.88,305.06 291.52,305.45 289.18,305.87 286.84,306.33 284.50,306.82 282.18,307.34 279.86,307.90 277.55,308.49 275.24,309.11 272.95,309.76 270.67,310.45 268.39,311.17 266.13,311.93 263.88,312.71 261.64,313.53 259.41,314.38 257.20,315.26 254.99,316.17 252.80,317.12 250.63,318.09 248.46,319.10 246.32,320.13 244.18,321.20 242.07,322.30 239.97,323.43 237.88,324.59 235.81,325.77 233.76,326.99 231.73,328.24 229.71,329.51 227.72,330.81 225.74,332.15 223.78,333.51 221.84,334.89 219.92,336.31 218.02,337.75 216.14,339.22 214.29,340.72 212.45,342.24 210.64,343.79 208.85,345.36 207.08,346.96 205.33,348.59 203.61,350.24 201.91,351.91 200.24,353.61 198.59,355.33 196.96,357.08 195.36,358.85 193.79,360.64 192.24,362.45 190.72,364.29 189.22,366.14 187.75,368.02 186.31,369.92 184.89,371.84 183.51,373.78 182.15,375.74 180.81,377.72 179.51,379.71 178.24,381.73 176.99,383.76 175.77,385.81 174.59,387.88 173.43,389.97 172.30,392.07 171.20,394.18 170.13,396.32 169.10,398.46 168.09,400.63 167.12,402.80 166.17,404.99 165.26,407.20 164.38,409.41 163.53,411.64 162.71,413.88 161.93,416.13 161.17,418.39 160.45,420.67 159.76,422.95 159.11,425.24 158.49,427.55 157.90,429.86 157.34,432.18 156.82,434.50 156.33,436.84 155.87,439.18 155.45,441.52 155.06,443.88 154.70,446.23 154.38,448.60 154.09,450.96 153.83,453.33 153.61,455.71 153.43,458.09 153.27,460.47 153.15,462.85 153.07,465.23 153.02,467.62 153.00,470.00 153.00,496.00 Z" fill="#4A7837" stroke="#141414" stroke-width="5" stroke-linejoin="round"/>
<path d="M527.00,30.00 527.00,56.00 526.98,58.96 526.92,61.91 526.81,64.87 526.66,67.82 526.47,70.77 526.24,73.71 525.97,76.66 525.65,79.60 525.29,82.53 524.89,85.46 524.45,88.38 523.97,91.30 523.44,94.21 522.88,97.11 522.27,100.00 521.62,102.88 520.93,105.76 520.20,108.62 519.43,111.48 518.62,114.32 517.76,117.15 516.87,119.97 515.94,122.77 514.96,125.56 513.95,128.34 512.90,131.10 511.80,133.85 510.67,136.58 509.50,139.29 508.29,141.99 507.05,144.67 505.76,147.33 504.44,149.98 503.08,152.60 501.68,155.20 500.24,157.79 498.77,160.35 497.26,162.89 495.72,165.41 494.14,167.91 492.52,170.39 490.87,172.84 489.19,175.27 487.47,177.67 485.71,180.05 483.92,182.40 482.10,184.73 480.25,187.03 478.36,189.31 476.44,191.56 474.49,193.78 472.51,195.97 470.49,198.13 468.45,200.27 466.37,202.37 464.27,204.45 462.13,206.49 459.97,208.51 457.78,210.49 455.56,212.44 453.31,214.36 451.03,216.25 448.73,218.10 446.40,219.92 444.05,221.71 441.67,223.47 439.27,225.19 436.84,226.87 434.39,228.52 431.91,230.14 429.41,231.72 426.89,233.26 424.35,234.77 421.79,236.24 419.20,237.68 416.60,239.08 413.98,240.44 411.33,241.76 408.67,243.05 405.99,244.29 403.29,245.50 400.58,246.67 397.85,247.80 395.10,248.90 392.34,249.95 389.56,250.96 386.77,251.94 383.97,252.87 381.15,253.76 378.32,254.62 375.48,255.43 372.62,256.20 369.76,256.93 366.88,257.62 364.00,258.27 361.11,258.88 358.21,259.44 355.30,259.97 352.38,260.45 349.46,260.89 346.53,261.29 343.60,261.65 340.66,261.97 337.71,262.24 334.77,262.47 331.82,262.66 328.87,262.81 325.91,262.92 322.96,262.98 320.00,263.00 317.04,262.98 314.09,262.92 311.13,262.81 308.18,262.66 305.23,262.47 302.29,262.24 299.34,261.97 296.40,261.65 293.47,261.29 290.54,260.89 287.62,260.45 284.70,259.97 281.79,259.44 278.89,258.88 276.00,258.27 273.12,257.62 270.24,256.93 267.38,256.20 264.52,255.43 261.68,254.62 258.85,253.76 256.03,252.87 253.23,251.94 250.44,250.96 247.66,249.95 244.90,248.90 242.15,247.80 239.42,246.67 236.71,245.50 234.01,244.29 231.33,243.05 228.67,241.76 226.02,240.44 223.40,239.08 220.80,237.68 218.21,236.24 215.65,234.77 213.11,233.26 210.59,231.72 208.09,230.14 205.61,228.52 203.16,226.87 200.73,225.19 198.33,223.47 195.95,221.71 193.60,219.92 191.27,218.10 188.97,216.25 186.69,214.36 184.44,212.44 182.22,210.49 180.03,208.51 177.87,206.49 175.73,204.45 173.63,202.37 171.55,200.27 169.51,198.13 167.49,195.97 165.51,193.78 163.56,191.56 161.64,189.31 159.75,187.03 157.90,184.73 156.08,182.40 154.29,180.05 152.53,177.67 150.81,175.27 149.13,172.84 147.48,170.39 145.86,167.91 144.28,165.41 142.74,162.89 141.23,160.35 139.76,157.79 138.32,155.20 136.92,152.60 135.56,149.98 134.24,147.33 132.95,144.67 131.71,141.99 130.50,139.29 129.33,136.58 128.20,133.85 127.10,131.10 126.05,128.34 125.04,125.56 124.06,122.77 123.13,119.97 122.24,117.15 121.38,114.32 120.57,111.48 119.80,108.62 119.07,105.76 118.38,102.88 117.73,100.00 117.12,97.11 116.56,94.21 116.03,91.30 115.55,88.38 115.11,85.46 114.71,82.53 114.35,79.60 114.03,76.66 113.76,73.71 113.53,70.77 113.34,67.82 113.19,64.87 113.08,61.91 113.02,58.96 113.00,56.00 113.00,30.00 153.00,30.00 153.00,56.00 153.02,58.38 153.07,60.77 153.15,63.15 153.27,65.53 153.43,67.91 153.61,70.29 153.83,72.67 154.09,75.04 154.38,77.40 154.70,79.77 155.06,82.12 155.45,84.48 155.87,86.82 156.33,89.16 156.82,91.50 157.34,93.82 157.90,96.14 158.49,98.45 159.11,100.76 159.76,103.05 160.45,105.33 161.17,107.61 161.93,109.87 162.71,112.12 163.53,114.36 164.38,116.59 165.26,118.80 166.17,121.01 167.12,123.20 168.09,125.37 169.10,127.54 170.13,129.68 171.20,131.82 172.30,133.93 173.43,136.03 174.59,138.12 175.77,140.19 176.99,142.24 178.24,144.27 179.51,146.29 180.81,148.28 182.15,150.26 183.51,152.22 184.89,154.16 186.31,156.08 187.75,157.98 189.22,159.86 190.72,161.71 192.24,163.55 193.79,165.36 195.36,167.15 196.96,168.92 198.59,170.67 200.24,172.39 201.91,174.09 203.61,175.76 205.33,177.41 207.08,179.04 208.85,180.64 210.64,182.21 212.45,183.76 214.29,185.28 216.14,186.78 218.02,188.25 219.92,189.69 221.84,191.11 223.78,192.49 225.74,193.85 227.72,195.19 229.71,196.49 231.73,197.76 233.76,199.01 235.81,200.23 237.88,201.41 239.97,202.57 242.07,203.70 244.18,204.80 246.32,205.87 248.46,206.90 250.63,207.91 252.80,208.88 254.99,209.83 257.20,210.74 259.41,211.62 261.64,212.47 263.88,213.29 266.13,214.07 268.39,214.83 270.67,215.55 272.95,216.24 275.24,216.89 277.55,217.51 279.86,218.10 282.18,218.66 284.50,219.18 286.84,219.67 289.18,220.13 291.52,220.55 293.88,220.94 296.23,221.30 298.60,221.62 300.96,221.91 303.33,222.17 305.71,222.39 308.09,222.57 310.47,222.73 312.85,222.85 315.23,222.93 317.62,222.98 320.00,223.00 322.38,222.98 324.77,222.93 327.15,222.85 329.53,222.73 331.91,222.57 334.29,222.39 336.67,222.17 339.04,221.91 341.40,221.62 343.77,221.30 346.12,220.94 348.48,220.55 350.82,220.13 353.16,219.67 355.50,219.18 357.82,218.66 360.14,218.10 362.45,217.51 364.76,216.89 367.05,216.24 369.33,215.55 371.61,214.83 373.87,214.07 376.12,213.29 378.36,212.47 380.59,211.62 382.80,210.74 385.01,209.83 387.20,208.88 389.37,207.91 391.54,206.90 393.68,205.87 395.82,204.80 397.93,203.70 400.03,202.57 402.12,201.41 404.19,200.23 406.24,199.01 408.27,197.76 410.29,196.49 412.28,195.19 414.26,193.85 416.22,192.49 418.16,191.11 420.08,189.69 421.98,188.25 423.86,186.78 425.71,185.28 427.55,183.76 429.36,182.21 431.15,180.64 432.92,179.04 434.67,177.41 436.39,175.76 438.09,174.09 439.76,172.39 441.41,170.67 443.04,168.92 444.64,167.15 446.21,165.36 447.76,163.55 449.28,161.71 450.78,159.86 452.25,157.98 453.69,156.08 455.11,154.16 456.49,152.22 457.85,150.26 459.19,148.28 460.49,146.29 461.76,144.27 463.01,142.24 464.23,140.19 465.41,138.12 466.57,136.03 467.70,133.93 468.80,131.82 469.87,129.68 470.90,127.54 471.91,125.37 472.88,123.20 473.83,121.01 474.74,118.80 475.62,116.59 476.47,114.36 477.29,112.12 478.07,109.87 478.83,107.61 479.55,105.33 480.24,103.05 480.89,100.76 481.51,98.45 482.10,96.14 482.66,93.82 483.18,91.50 483.67,89.16 484.13,86.82 484.55,84.48 484.94,82.12 485.30,79.77 485.62,77.40 485.91,75.04 486.17,72.67 486.39,70.29 486.57,67.91 486.73,65.53 486.85,63.15 486.93,60.77 486.98,58.38 487.00,56.00 487.00,30.00 Z" fill="#C3C9D1" stroke="#141414" stroke-width="5" stroke-linejoin="round"/>
</g>
</svg>
