<svg xmlns="http://www.w3.org/2000/svg" viewBox="88 30 464 626">
<rect x="88" y="30" width="464" height="626" fill="#0E0E10"/>
<circle cx="320" cy="470" r="160" fill="#0E0E10" stroke="#F4F4EF" stroke-width="6"/>
<path d="M380.42,433.23 382.64,434.12 384.83,435.04 387.00,435.99 389.14,436.97 391.26,437.99 393.35,439.03 395.42,440.10 397.45,441.19 399.46,442.32 401.44,443.47 403.39,444.65 405.30,445.85 407.19,447.08 409.04,448.34 410.87,449.61 412.65,450.91 414.41,452.24 416.13,453.59 417.81,454.95 419.46,456.34 421.07,457.75 422.64,459.18 424.18,460.62 425.68,462.09 427.14,463.57 428.56,465.07 429.94,466.58 431.28,468.11 432.58,469.65 433.84,471.21 435.06,472.78 436.24,474.36 437.37,475.95 438.47,477.55 439.52,479.17 440.52,480.79 441.48,482.42 442.40,484.05 443.28,485.70 444.11,487.34 444.90,489.00 445.64,490.65 446.33,492.31 446.99,493.97 447.59,495.64 448.15,497.30 448.67,498.96 449.14,500.62 449.56,502.28 449.94,503.94 450.27,505.59 450.56,507.24 450.80,508.89 451.00,510.52 451.15,512.15 451.25,513.77 451.31,515.39 451.32,516.99 451.28,518.58 451.21,520.17 451.08,521.74 450.91,523.29 450.70,524.84 450.44,526.37 450.13,527.88 449.79,529.38 449.39,530.86 448.96,532.32 448.48,533.76 447.96,535.19 447.39,536.59 446.78,537.98 446.13,539.34 445.44,540.68 444.71,542.00 443.93,543.29 443.12,544.56 442.26,545.81 441.37,547.03 440.43,548.22 439.46,549.38 438.45,550.52 437.40,551.63 436.31,552.71 435.19,553.76 434.03,554.78 432.84,555.77 431.61,556.73 430.35,557.65 429.05,558.54 427.72,559.40 426.35,560.23 424.96,561.02 423.53,561.78 422.08,562.50 420.59,563.18 419.08,563.83 417.53,564.45 415.96,565.02 414.36,565.56 412.74,566.06 411.09,566.53 409.42,566.95 407.72,567.33 406.00,567.68 404.25,567.99 402.49,568.25 400.70,568.48 398.90,568.67 397.07,568.81 395.23,568.91 393.37,568.98 391.50,569.00 389.60,568.98 387.70,568.92 385.78,568.82 383.84,568.67 381.90,568.49 379.94,568.26 377.97,567.99 375.99,567.67 374.00,567.32 372.01,566.92 370.01,566.48 368.00,566.00 365.99,565.48 363.97,564.91 361.95,564.30 359.92,563.65 357.90,562.96 355.87,562.23 353.85,561.45 351.82,560.64 349.80,559.78 347.78,558.88 345.76,557.95 343.75,556.97 341.74,555.95 339.74,554.89 337.74,553.79 335.76,552.66 333.78,551.48 331.81,550.26 329.85,549.01 327.90,547.72 325.97,546.39 324.05,545.03 322.14,543.63 320.24,542.19 Z" fill="#CFCEC7"/>
<path d="M257.94,436.06 257.60,433.69 257.31,431.34 257.05,428.98 256.83,426.63 256.64,424.29 256.50,421.96 256.39,419.64 256.33,417.33 256.30,415.03 256.31,412.74 256.35,410.46 256.44,408.20 256.56,405.95 256.72,403.72 256.91,401.50 257.15,399.30 257.42,397.12 257.72,394.96 258.06,392.82 258.44,390.70 258.86,388.60 259.31,386.52 259.79,384.47 260.31,382.44 260.86,380.43 261.45,378.45 262.07,376.50 262.72,374.57 263.41,372.67 264.13,370.80 264.88,368.96 265.66,367.15 266.47,365.38 267.31,363.63 268.18,361.91 269.08,360.23 270.01,358.58 270.97,356.97 271.95,355.39 272.97,353.85 274.00,352.34 275.07,350.87 276.16,349.44 277.27,348.04 278.41,346.68 279.57,345.37 280.75,344.09 281.95,342.85 283.18,341.65 284.42,340.50 285.69,339.38 286.97,338.31 288.28,337.28 289.60,336.29 290.93,335.35 292.29,334.45 293.65,333.59 295.04,332.78 296.43,332.01 297.84,331.29 299.26,330.61 300.70,329.98 302.14,329.39 303.60,328.85 305.06,328.36 306.53,327.91 308.01,327.51 309.49,327.16 310.98,326.85 312.48,326.59 313.98,326.38 315.48,326.21 316.99,326.09 318.49,326.02 320.00,326.00 321.51,326.02 323.01,326.09 324.52,326.21 326.02,326.38 327.52,326.59 329.02,326.85 330.51,327.16 331.99,327.51 333.47,327.91 334.94,328.36 336.40,328.85 337.86,329.39 339.30,329.98 340.74,330.61 342.16,331.29 343.57,332.01 344.96,332.78 346.35,333.59 347.71,334.45 349.07,335.35 350.40,336.29 351.72,337.28 353.03,338.31 354.31,339.38 355.58,340.50 356.82,341.65 358.05,342.85 359.25,344.09 360.43,345.37 361.59,346.68 362.73,348.04 363.84,349.44 364.93,350.87 366.00,352.34 367.03,353.85 368.05,355.39 369.03,356.97 369.99,358.58 370.92,360.23 371.82,361.91 372.69,363.63 373.53,365.38 374.34,367.15 375.12,368.96 375.87,370.80 376.59,372.67 377.28,374.57 377.93,376.50 378.55,378.45 379.14,380.43 379.69,382.44 380.21,384.47 380.69,386.52 381.14,388.60 381.56,390.70 381.94,392.82 382.28,394.96 382.58,397.12 382.85,399.30 383.09,401.50 383.28,403.72 383.44,405.95 383.56,408.20 383.65,410.46 383.69,412.74 383.70,415.03 383.67,417.33 383.61,419.64 383.50,421.96 383.36,424.29 383.17,426.63 382.95,428.98 382.69,431.34 382.40,433.69 Z" fill="#F4C61C"/>
<path d="M321.64,540.72 319.76,542.19 317.86,543.63 315.95,545.03 314.03,546.39 312.10,547.72 310.15,549.01 308.19,550.26 306.22,551.48 304.24,552.66 302.26,553.79 300.26,554.89 298.26,555.95 296.25,556.97 294.24,557.95 292.22,558.88 290.20,559.78 288.18,560.64 286.15,561.45 284.13,562.23 282.10,562.96 280.08,563.65 278.05,564.30 276.03,564.91 274.01,565.48 272.00,566.00 269.99,566.48 267.99,566.92 266.00,567.32 264.01,567.67 262.03,567.99 260.06,568.26 258.10,568.49 256.16,568.67 254.22,568.82 252.30,568.92 250.40,568.98 248.50,569.00 246.63,568.98 244.77,568.91 242.93,568.81 241.10,568.67 239.30,568.48 237.51,568.25 235.75,567.99 234.00,567.68 232.28,567.33 230.58,566.95 228.91,566.53 227.26,566.06 225.64,565.56 224.04,565.02 222.47,564.45 220.92,563.83 219.41,563.18 217.92,562.50 216.47,561.78 215.04,561.02 213.65,560.23 212.28,559.40 210.95,558.54 209.65,557.65 208.39,556.73 207.16,555.77 205.97,554.78 204.81,553.76 203.69,552.71 202.60,551.63 201.55,550.52 200.54,549.38 199.57,548.22 198.63,547.03 197.74,545.81 196.88,544.56 196.07,543.29 195.29,542.00 194.56,540.68 193.87,539.34 193.22,537.98 192.61,536.59 192.04,535.19 191.52,533.76 191.04,532.32 190.61,530.86 190.21,529.38 189.87,527.88 189.56,526.37 189.30,524.84 189.09,523.29 188.92,521.74 188.79,520.17 188.72,518.58 188.68,516.99 188.69,515.39 188.75,513.77 188.85,512.15 189.00,510.52 189.20,508.89 189.44,507.24 189.73,505.59 190.06,503.94 190.44,502.28 190.86,500.62 191.33,498.96 191.85,497.30 192.41,495.64 193.01,493.97 193.67,492.31 194.36,490.65 195.10,489.00 195.89,487.34 196.72,485.70 197.60,484.05 198.52,482.42 199.48,480.79 200.48,479.17 201.53,477.55 202.63,475.95 203.76,474.36 204.94,472.78 206.16,471.21 207.42,469.65 208.72,468.11 210.06,466.58 211.44,465.07 212.86,463.57 214.32,462.09 215.82,460.62 217.36,459.18 218.93,457.75 220.54,456.34 222.19,454.95 223.87,453.59 225.59,452.24 227.35,450.91 229.13,449.61 230.96,448.34 232.81,447.08 234.70,445.85 236.61,444.65 238.56,443.47 240.54,442.32 242.55,441.19 244.58,440.10 246.65,439.03 248.74,437.99 250.86,436.97 253.00,435.99 255.17,435.04 257.36,434.12 Z" fill="#1B1B1B"/>
<path d="M320.24,542.19 318.36,540.72 316.50,539.21 314.65,537.66 312.83,536.09 311.02,534.48 309.22,532.83 307.45,531.16 305.70,529.45 303.97,527.71 302.26,525.94 300.58,524.14 298.91,522.31 297.27,520.45 295.66,518.57 294.07,516.65 292.51,514.71 290.97,512.75 289.46,510.76 287.98,508.74 286.53,506.70 285.10,504.64 283.71,502.55 282.34,500.44 281.01,498.32 279.70,496.17 278.43,494.00 277.19,491.81 275.98,489.61 274.81,487.39 273.66,485.16 272.56,482.90 271.48,480.64 270.44,478.36 269.44,476.07 268.47,473.77 267.53,471.45 266.63,469.13 265.77,466.80 264.94,464.45 264.15,462.11 263.40,459.75 262.69,457.39 262.01,455.03 261.37,452.66 260.76,450.29 260.20,447.92 259.67,445.54 259.18,443.17 258.73,440.80 258.32,438.43 257.94,436.06 257.36,434.12 259.58,433.23 261.81,432.37 264.07,431.54 266.35,430.74 268.65,429.98 270.97,429.25 273.31,428.55 275.67,427.89 278.04,427.26 280.42,426.67 282.83,426.11 285.24,425.58 287.67,425.09 290.11,424.64 292.56,424.22 295.02,423.83 297.49,423.49 299.97,423.18 302.46,422.90 304.95,422.66 307.45,422.46 309.96,422.29 312.46,422.17 314.97,422.07 317.49,422.02 320.00,422.00 322.51,422.02 325.03,422.07 327.54,422.17 330.04,422.29 332.55,422.46 335.05,422.66 337.54,422.90 340.03,423.18 342.51,423.49 344.98,423.83 347.44,424.22 349.89,424.64 352.33,425.09 354.76,425.58 357.17,426.11 359.58,426.67 361.96,427.26 364.33,427.89 366.69,428.55 369.03,429.25 371.35,429.98 373.65,430.74 375.93,431.54 378.19,432.37 380.42,433.23 382.40,433.69 382.06,436.06 381.68,438.43 381.27,440.80 380.82,443.17 380.33,445.54 379.80,447.92 379.24,450.29 378.63,452.66 377.99,455.03 377.31,457.39 376.60,459.75 375.85,462.11 375.06,464.45 374.23,466.80 373.37,469.13 372.47,471.45 371.53,473.77 370.56,476.07 369.56,478.36 368.52,480.64 367.44,482.90 366.34,485.16 365.19,487.39 364.02,489.61 362.81,491.81 361.57,494.00 360.30,496.17 358.99,498.32 357.66,500.44 356.29,502.55 354.90,504.64 353.47,506.70 352.02,508.74 350.54,510.76 349.03,512.75 347.49,514.71 345.93,516.65 344.34,518.57 342.73,520.45 341.09,522.31 339.42,524.14 337.74,525.94 336.03,527.71 334.30,529.45 332.55,531.16 330.78,532.83 328.98,534.48 327.17,536.09 325.35,537.66 323.50,539.21 321.64,540.72 Z" fill="#D62828"/>
<polyline points="320.00,422.00 322.51,422.02 325.03,422.07 327.54,422.17 330.04,422.29 332.55,422.46 335.05,422.66 337.54,422.90 340.03,423.18 342.51,423.49 344.98,423.83 347.44,424.22 349.89,424.64 352.33,425.09 354.76,425.58 357.17,426.11 359.58,426.67 361.96,427.26 364.33,427.89 366.69,428.55 369.03,429.25 371.35,429.98 373.65,430.74 375.93,431.54 378.19,432.37 380.42,433.23 382.64,434.12 384.83,435.04 387.00,435.99 389.14,436.97 391.26,437.99 393.35,439.03 395.42,440.10 397.45,441.19 399.46,442.32 401.44,443.47 403.39,444.65 405.30,445.85 407.19,447.08 409.04,448.34 410.87,449.61 412.65,450.91 414.41,452.24 416.13,453.59 417.81,454.95 419.46,456.34 421.07,457.75 422.64,459.18 424.18,460.62 425.68,462.09 427.14,463.57 428.56,465.07 429.94,466.58 431.28,468.11 432.58,469.65 433.84,471.21 435.06,472.78 436.24,474.36 437.37,475.95 438.47,477.55 439.52,479.17 440.52,480.79 441.48,482.42 442.40,484.05 443.28,485.70 444.11,487.34 444.90,489.00 445.64,490.65 446.33,492.31 446.99,493.97 447.59,495.64 448.15,497.30 448.67,498.96 449.14,500.62 449.56,502.28 449.94,503.94 450.27,505.59 450.56,507.24 450.80,508.89 451.00,510.52 451.15,512.15 451.25,513.77 451.31,515.39 451.32,516.99 451.28,518.58 451.21,520.17 451.08,521.74 450.91,523.29 450.70,524.84 450.44,526.37 450.13,527.88 449.79,529.38 449.39,530.86 448.96,532.32 448.48,533.76 447.96,535.19 447.39,536.59 446.78,537.98 446.13,539.34 445.44,540.68 444.71,542.00 443.93,543.29 443.12,544.56 442.26,545.81 441.37,547.03 440.43,548.22 439.46,549.38 438.45,550.52 437.40,551.63 436.31,552.71 435.19,553.76 434.03,554.78 432.84,555.77 431.61,556.73 430.35,557.65 429.05,558.54 427.72,559.40 426.35,560.23 424.96,561.02 423.53,561.78 422.08,562.50 420.59,563.18 419.08,563.83 417.53,564.45 415.96,565.02 414.36,565.56 412.74,566.06 411.09,566.53 409.42,566.95 407.72,567.33 406.00,567.68 404.25,567.99 402.49,568.25 400.70,568.48 398.90,568.67 397.07,568.81 395.23,568.91 393.37,568.98 391.50,569.00 389.60,568.98 387.70,568.92 385.78,568.82 383.84,568.67 381.90,568.49 379.94,568.26 377.97,567.99 375.99,567.67 374.00,567.32 372.01,566.92 370.01,566.48 368.00,566.00 365.99,565.48 363.97,564.91 361.95,564.30 359.92,563.65 357.90,562.96 355.87,562.23 353.85,561.45 351.82,560.64 349.80,559.78 347.78,558.88 345.76,557.95 343.75,556.97 341.74,555.95 339.74,554.89 337.74,553.79 335.76,552.66 333.78,551.48 331.81,550.26 329.85,549.01 327.90,547.72 325.97,546.39 324.05,545.03 322.14,543.63 320.24,542.19 318.36,540.72 316.50,539.21 314.65,537.66 312.83,536.09 311.02,534.48 309.22,532.83 307.45,531.16 305.70,529.45 303.97,527.71 302.26,525.94 300.58,524.14 298.91,522.31 297.27,520.45 295.66,518.57 294.07,516.65 292.51,514.71 290.97,512.75 289.46,510.76 287.98,508.74 286.53,506.70 285.10,504.64 283.71,502.55 282.34,500.44 281.01,498.32 279.70,496.17 278.43,494.00 277.19,491.81 275.98,489.61 274.81,487.39 273.66,485.16 272.56,482.90 271.48,480.64 270.44,478.36 269.44,476.07 268.47,473.77 267.53,471.45 266.63,469.13 265.77,466.80 264.94,464.45 264.15,462.11 263.40,459.75 262.69,457.39 262.01,455.03 261.37,452.66 260.76,450.29 260.20,447.92 259.67,445.54 259.18,443.17 258.73,440.80 258.32,438.43 257.94,436.06 257.60,433.69 257.31,431.34 257.05,428.98 256.83,426.63 256.64,424.29 256.50,421.96 256.39,419.64 256.33,417.33 256.30,415.03 256.31,412.74 256.35,410.46 256.44,408.20 256.56,405.95 256.72,403.72 256.91,401.50 257.15,399.30 257.42,397.12 257.72,394.96 258.06,392.82 258.44,390.70 258.86,388.60 259.31,386.52 259.79,384.47 260.31,382.44 260.86,380.43 261.45,378.45 262.07,376.50 262.72,374.57 263.41,372.67 264.13,370.80 264.88,368.96 265.66,367.15 266.47,365.38 267.31,363.63 268.18,361.91 269.08,360.23 270.01,358.58 270.97,356.97 271.95,355.39 272.97,353.85 274.00,352.34 275.07,350.87 276.16,349.44 277.27,348.04 278.41,346.68 279.57,345.37 280.75,344.09 281.95,342.85 283.18,341.65 284.42,340.50 285.69,339.38 286.97,338.31 288.28,337.28 289.60,336.29 290.93,335.35 292.29,334.45 293.65,333.59 295.04,332.78 296.43,332.01 297.84,331.29 299.26,330.61 300.70,329.98 302.14,329.39 303.60,328.85 305.06,328.36 306.53,327.91 308.01,327.51 309.49,327.16 310.98,326.85 312.48,326.59 313.98,326.38 315.48,326.21 316.99,326.09 318.49,326.02 320.00,326.00 321.51,326.02 323.01,326.09 324.52,326.21 326.02,326.38 327.52,326.59 329.02,326.85 330.51,327.16 331.99,327.51 333.47,327.91 334.94,328.36 336.40,328.85 337.86,329.39 339.30,329.98 340.74,330.61 342.16,331.29 343.57,332.01 344.96,332.78 346.35,333.59 347.71,334.45 349.07,335.35 350.40,336.29 351.72,337.28 353.03,338.31 354.31,339.38 355.58,340.50 356.82,341.65 358.05,342.85 359.25,344.09 360.43,345.37 361.59,346.68 362.73,348.04 363.84,349.44 364.93,350.87 366.00,352.34 367.03,353.85 368.05,355.39 369.03,356.97 369.99,358.58 370.92,360.23 371.82,361.91 372.69,363.63 373.53,365.38 374.34,367.15 375.12,368.96 375.87,370.80 376.59,372.67 377.28,374.57 377.93,376.50 378.55,378.45 379.14,380.43 379.69,382.44 380.21,384.47 380.69,386.52 381.14,388.60 381.56,390.70 381.94,392.82 382.28,394.96 382.58,397.12 382.85,399.30 383.09,401.50 383.28,403.72 383.44,405.95 383.56,408.20 383.65,410.46 383.69,412.74 383.70,415.03 383.67,417.33 383.61,419.64 383.50,421.96 383.36,424.29 383.17,426.63 382.95,428.98 382.69,431.34 382.40,433.69 382.06,436.06 381.68,438.43 381.27,440.80 380.82,443.17 380.33,445.54 379.80,447.92 379.24,450.29 378.63,452.66 377.99,455.03 377.31,457.39 376.60,459.75 375.85,462.11 375.06,464.45 374.23,466.80 373.37,469.13 372.47,471.45 371.53,473.77 370.56,476.07 369.56,478.36 368.52,480.64 367.44,482.90 366.34,485.16 365.19,487.39 364.02,489.61 362.81,491.81 361.57,494.00 360.30,496.17 358.99,498.32 357.66,500.44 356.29,502.55 354.90,504.64 353.47,506.70 352.02,508.74 350.54,510.76 349.03,512.75 347.49,514.71 345.93,516.65 344.34,518.57 342.73,520.45 341.09,522.31 339.42,524.14 337.74,525.94 336.03,527.71 334.30,529.45 332.55,531.16 330.78,532.83 328.98,534.48 327.17,536.09 325.35,537.66 323.50,539.21 321.64,540.72 319.76,542.19 317.86,543.63 315.95,545.03 314.03,546.39 312.10,547.72 310.15,549.01 308.19,550.26 306.22,551.48 304.24,552.66 302.26,553.79 300.26,554.89 298.26,555.95 296.25,556.97 294.24,557.95 292.22,558.88 290.20,559.78 288.18,560.64 286.15,561.45 284.13,562.23 282.10,562.96 280.08,563.65 278.05,564.30 276.03,564.91 274.01,565.48 272.00,566.00 269.99,566.48 267.99,566.92 266.00,567.32 264.01,567.67 262.03,567.99 260.06,568.26 258.10,568.49 256.16,568.67 254.22,568.82 252.30,568.92 250.40,568.98 248.50,569.00 246.63,568.98 244.77,568.91 242.93,568.81 241.10,568.67 239.30,568.48 237.51,568.25 235.75,567.99 234.00,567.68 232.28,567.33 230.58,566.95 228.91,566.53 227.26,566.06 225.64,565.56 224.04,565.02 222.47,564.45 220.92,563.83 219.41,563.18 217.92,562.50 216.47,561.78 215.04,561.02 213.65,560.23 212.28,559.40 210.95,558.54 209.65,557.65 208.39,556.73 207.16,555.77 205.97,554.78 204.81,553.76 203.69,552.71 202.60,551.63 201.55,550.52 200.54,549.38 199.57,548.22 198.63,547.03 197.74,545.81 196.88,544.56 196.07,543.29 195.29,542.00 194.56,540.68 193.87,539.34 193.22,537.98 192.61,536.59 192.04,535.19 191.52,533.76 191.04,532.32 190.61,530.86 190.21,529.38 189.87,527.88 189.56,526.37 189.30,524.84 189.09,523.29 188.92,521.74 188.79,520.17 188.72,518.58 188.68,516.99 188.69,515.39 188.75,513.77 188.85,512.15 189.00,510.52 189.20,508.89 189.44,507.24 189.73,505.59 190.06,503.94 190.44,502.28 190.86,500.62 191.33,498.96 191.85,497.30 192.41,495.64 193.01,493.97 193.67,492.31 194.36,490.65 195.10,489.00 195.89,487.34 196.72,485.70 197.60,484.05 198.52,482.42 199.48,480.79 200.48,479.17 201.53,477.55 202.63,475.95 203.76,474.36 204.94,472.78 206.16,471.21 207.42,469.65 208.72,468.11 210.06,466.58 211.44,465.07 212.86,463.57 214.32,462.09 215.82,460.62 217.36,459.18 218.93,457.75 220.54,456.34 222.19,454.95 223.87,453.59 225.59,452.24 227.35,450.91 229.13,449.61 230.96,448.34 232.81,447.08 234.70,445.85 236.61,444.65 238.56,443.47 240.54,442.32 242.55,441.19 244.58,440.10 246.65,439.03 248.74,437.99 250.86,436.97 253.00,435.99 255.17,435.04 257.36,434.12 259.58,433.23 261.81,432.37 264.07,431.54 266.35,430.74 268.65,429.98 270.97,429.25 273.31,428.55 275.67,427.89 278.04,427.26 280.42,426.67 282.83,426.11 285.24,425.58 287.67,425.09 290.11,424.64 292.56,424.22 295.02,423.83 297.49,423.49 299.97,423.18 302.46,422.90 304.95,422.66 307.45,422.46 309.96,422.29 312.46,422.17 314.97,422.07 317.49,422.02 320.00,422.00" fill="none" stroke="#F4F4EF" stroke-width="19.2" stroke-linecap="round" stroke-linejoin="round"/>
<path d="M113.00,470.00 113.04,465.94 113.16,461.87 113.36,457.81 113.64,453.76 114.00,449.71 114.43,445.67 114.95,441.64 115.55,437.62 116.22,433.61 116.98,429.62 117.81,425.64 118.72,421.68 119.71,417.73 120.77,413.81 121.91,409.91 123.13,406.03 124.43,402.18 125.79,398.35 127.24,394.55 128.76,390.78 130.35,387.04 132.01,383.34 133.75,379.66 135.56,376.02 137.44,372.42 139.39,368.86 141.41,365.33 143.50,361.84 145.66,358.40 147.89,355.00 150.18,351.64 152.53,348.33 154.95,345.06 157.44,341.85 159.99,338.68 162.60,335.56 165.27,332.50 168.00,329.49 170.78,326.53 173.63,323.63 176.53,320.78 179.49,318.00 182.50,315.27 185.56,312.60 188.68,309.99 191.85,307.44 195.06,304.95 198.33,302.53 201.64,300.18 205.00,297.89 208.40,295.66 211.84,293.50 215.33,291.41 218.86,289.39 222.42,287.44 226.02,285.56 229.66,283.75 233.34,282.01 237.04,280.35 240.78,278.76 244.55,277.24 248.35,275.79 252.18,274.43 256.03,273.13 259.91,271.91 263.81,270.77 267.73,269.71 271.68,268.72 275.64,267.81 279.62,266.98 283.61,266.22 287.62,265.55 291.64,264.95 295.67,264.43 299.71,264.00 303.76,263.64 307.81,263.36 311.87,263.16 315.94,263.04 320.00,263.00 324.06,263.04 328.13,263.16 332.19,263.36 336.24,263.64 340.29,264.00 344.33,264.43 348.36,264.95 352.38,265.55 356.39,266.22 360.38,266.98 364.36,267.81 368.32,268.72 372.27,269.71 376.19,270.77 380.09,271.91 383.97,273.13 387.82,274.43 391.65,275.79 395.45,277.24 399.22,278.76 402.96,280.35 406.66,282.01 410.34,283.75 413.98,285.56 417.58,287.44 421.14,289.39 424.67,291.41 428.16,293.50 431.60,295.66 435.00,297.89 438.36,300.18 441.67,302.53 444.94,304.95 448.15,307.44 451.32,309.99 454.44,312.60 457.50,315.27 460.51,318.00 463.47,320.78 466.37,323.63 469.22,326.53 472.00,329.49 474.73,332.50 477.40,335.56 480.01,338.68 482.56,341.85 485.05,345.06 487.47,348.33 489.82,351.64 492.11,355.00 494.34,358.40 496.50,361.84 498.59,365.33 500.61,368.86 502.56,372.42 504.44,376.02 506.25,379.66 507.99,383.34 509.65,387.04 511.24,390.78 512.76,394.55 514.21,398.35 515.57,402.18 516.87,406.03 518.09,409.91 519.23,413.81 520.29,417.73 521.28,421.68 522.19,425.64 523.02,429.62 523.78,433.61 524.45,437.62 525.05,441.64 525.57,445.67 526.00,449.71 526.36,453.76 526.64,457.81 526.84,461.87 526.96,465.94 527.00,470.00 487.00,470.00 486.97,466.72 486.87,463.44 486.71,460.17 486.49,456.90 486.20,453.63 485.84,450.37 485.43,447.12 484.94,443.88 484.40,440.64 483.79,437.42 483.12,434.21 482.39,431.01 481.59,427.83 480.73,424.67 479.81,421.52 478.83,418.39 477.78,415.29 476.68,412.20 475.51,409.13 474.29,406.09 473.00,403.07 471.66,400.08 470.26,397.12 468.80,394.18 467.28,391.28 465.71,388.40 464.08,385.56 462.39,382.74 460.65,379.96 458.86,377.22 457.01,374.51 455.11,371.84 453.15,369.21 451.15,366.61 449.09,364.06 446.99,361.54 444.83,359.07 442.63,356.64 440.38,354.25 438.09,351.91 435.75,349.62 433.36,347.37 430.93,345.17 428.46,343.01 425.94,340.91 423.39,338.85 420.79,336.85 418.16,334.89 415.49,332.99 412.78,331.14 410.04,329.35 407.26,327.61 404.44,325.92 401.60,324.29 398.72,322.72 395.82,321.20 392.88,319.74 389.92,318.34 386.93,317.00 383.91,315.71 380.87,314.49 377.80,313.32 374.71,312.22 371.61,311.17 368.48,310.19 365.33,309.27 362.17,308.41 358.99,307.61 355.79,306.88 352.58,306.21 349.36,305.60 346.12,305.06 342.88,304.57 339.63,304.16 336.37,303.80 333.10,303.51 329.83,303.29 326.56,303.13 323.28,303.03 320.00,303.00 316.72,303.03 313.44,303.13 310.17,303.29 306.90,303.51 303.63,303.80 300.37,304.16 297.12,304.57 293.88,305.06 290.64,305.60 287.42,306.21 284.21,306.88 281.01,307.61 277.83,308.41 274.67,309.27 271.52,310.19 268.39,311.17 265.29,312.22 262.20,313.32 259.13,314.49 256.09,315.71 253.07,317.00 250.08,318.34 247.12,319.74 244.18,321.20 241.28,322.72 238.40,324.29 235.56,325.92 232.74,327.61 229.96,329.35 227.22,331.14 224.51,332.99 221.84,334.89 219.21,336.85 216.61,338.85 214.06,340.91 211.54,343.01 209.07,345.17 206.64,347.37 204.25,349.62 201.91,351.91 199.62,354.25 197.37,356.64 195.17,359.07 193.01,361.54 190.91,364.06 188.85,366.61 186.85,369.21 184.89,371.84 182.99,374.51 181.14,377.22 179.35,379.96 177.61,382.74 175.92,385.56 174.29,388.40 172.72,391.28 171.20,394.18 169.74,397.12 168.34,400.08 167.00,403.07 165.71,406.09 164.49,409.13 163.32,412.20 162.22,415.29 161.17,418.39 160.19,421.52 159.27,424.67 158.41,427.83 157.61,431.01 156.88,434.21 156.21,437.42 155.60,440.64 155.06,443.88 154.57,447.12 154.16,450.37 153.80,453.63 153.51,456.90 153.29,460.17 153.13,463.44 153.03,466.72 153.00,470.00 Z" fill="#4A7837" stroke="#F4F4EF" stroke-width="5" stroke-linejoin="round"/>
<path d="M527.00,56.00 526.96,60.06 526.84,64.13 526.64,68.19 526.36,72.24 526.00,76.29 525.57,80.33 525.05,84.36 524.45,88.38 523.78,92.39 523.02,96.38 522.19,100.36 521.28,104.32 520.29,108.27 519.23,112.19 518.09,116.09 516.87,119.97 515.57,123.82 514.21,127.65 512.76,131.45 511.24,135.22 509.65,138.96 507.99,142.66 506.25,146.34 504.44,149.98 502.56,153.58 500.61,157.14 498.59,160.67 496.50,164.16 494.34,167.60 492.11,171.00 489.82,174.36 487.47,177.67 485.05,180.94 482.56,184.15 480.01,187.32 477.40,190.44 474.73,193.50 472.00,196.51 469.22,199.47 466.37,202.37 463.47,205.22 460.51,208.00 457.50,210.73 454.44,213.40 451.32,216.01 448.15,218.56 444.94,221.05 441.67,223.47 438.36,225.82 435.00,228.11 431.60,230.34 428.16,232.50 424.67,234.59 421.14,236.61 417.58,238.56 413.98,240.44 410.34,242.25 406.66,243.99 402.96,245.65 399.22,247.24 395.45,248.76 391.65,250.21 387.82,251.57 383.97,252.87 380.09,254.09 376.19,255.23 372.27,256.29 368.32,257.28 364.36,258.19 360.38,259.02 356.39,259.78 352.38,260.45 348.36,261.05 344.33,261.57 340.29,262.00 336.24,262.36 332.19,262.64 328.13,262.84 324.06,262.96 320.00,263.00 315.94,262.96 311.87,262.84 307.81,262.64 303.76,262.36 299.71,262.00 295.67,261.57 291.64,261.05 287.62,260.45 283.61,259.78 279.62,259.02 275.64,258.19 271.68,257.28 267.73,256.29 263.81,255.23 259.91,254.09 256.03,252.87 252.18,251.57 248.35,250.21 244.55,248.76 240.78,247.24 237.04,245.65 233.34,243.99 229.66,242.25 226.02,240.44 222.42,238.56 218.86,236.61 215.33,234.59 211.84,232.50 208.40,230.34 205.00,228.11 201.64,225.82 198.33,223.47 195.06,221.05 191.85,218.56 188.68,216.01 185.56,213.40 182.50,210.73 179.49,208.00 176.53,205.22 173.63,202.37 170.78,199.47 168.00,196.51 165.27,193.50 162.60,190.44 159.99,187.32 157.44,184.15 154.95,180.94 152.53,177.67 150.18,174.36 147.89,171.00 145.66,167.60 143.50,164.16 141.41,160.67 139.39,157.14 137.44,153.58 135.56,149.98 133.75,146.34 132.01,142.66 130.35,138.96 128.76,135.22 127.24,131.45 125.79,127.65 124.43,123.82 123.13,119.97 121.91,116.09 120.77,112.19 119.71,108.27 118.72,104.32 117.81,100.36 116.98,96.38 116.22,92.39 115.55,88.38 114.95,84.36 114.43,80.33 114.00,76.29 113.64,72.24 113.36,68.19 113.16,64.13 113.04,60.06 113.00,56.00 153.00,56.00 153.03,59.28 153.13,62.56 153.29,65.83 153.51,69.10 153.80,72.37 154.16,75.63 154.57,78.88 155.06,82.12 155.60,85.36 156.21,88.58 156.88,91.79 157.61,94.99 158.41,98.17 159.27,101.33 160.19,104.48 161.17,107.61 162.22,110.71 163.32,113.80 164.49,116.87 165.71,119.91 167.00,122.93 168.34,125.92 169.74,128.88 171.20,131.82 172.72,134.72 174.29,137.60 175.92,140.44 177.61,143.26 179.35,146.04 181.14,148.78 182.99,151.49 184.89,154.16 186.85,156.79 188.85,159.39 190.91,161.94 193.01,164.46 195.17,166.93 197.37,169.36 199.62,171.75 201.91,174.09 204.25,176.38 206.64,178.63 209.07,180.83 211.54,182.99 214.06,185.09 216.61,187.15 219.21,189.15 221.84,191.11 224.51,193.01 227.22,194.86 229.96,196.65 232.74,198.39 235.56,200.08 238.40,201.71 241.28,203.28 244.18,204.80 247.12,206.26 250.08,207.66 253.07,209.00 256.09,210.29 259.13,211.51 262.20,212.68 265.29,213.78 268.39,214.83 271.52,215.81 274.67,216.73 277.83,217.59 281.01,218.39 284.21,219.12 287.42,219.79 290.64,220.40 293.88,220.94 297.12,221.43 300.37,221.84 303.63,222.20 306.90,222.49 310.17,222.71 313.44,222.87 316.72,222.97 320.00,223.00 323.28,222.97 326.56,222.87 329.83,222.71 333.10,222.49 336.37,222.20 339.63,221.84 342.88,221.43 346.12,220.94 349.36,220.40 352.58,219.79 355.79,219.12 358.99,218.39 362.17,217.59 365.33,216.73 368.48,215.81 371.61,214.83 374.71,213.78 377.80,212.68 380.87,211.51 383.91,210.29 386.93,209.00 389.92,207.66 392.88,206.26 395.82,204.80 398.72,203.28 401.60,201.71 404.44,200.08 407.26,198.39 410.04,196.65 412.78,194.86 415.49,193.01 418.16,191.11 420.79,189.15 423.39,187.15 425.94,185.09 428.46,182.99 430.93,180.83 433.36,178.63 435.75,176.38 438.09,174.09 440.38,171.75 442.63,169.36 444.83,166.93 446.99,164.46 449.09,161.94 451.15,159.39 453.15,156.79 455.11,154.16 457.01,151.49 458.86,148.78 460.65,146.04 462.39,143.26 464.08,140.44 465.71,137.60 467.28,134.72 468.80,131.82 470.26,128.88 471.66,125.92 473.00,122.93 474.29,119.91 475.51,116.87 476.68,113.80 477.78,110.71 478.83,107.61 479.81,104.48 480.73,101.33 481.59,98.17 482.39,94.99 483.12,91.79 483.79,88.58 484.40,85.36 484.94,82.12 485.43,78.88 485.84,75.63 486.20,72.37 486.49,69.10 486.71,65.83 486.87,62.56 486.97,59.28 487.00,56.00 Z" fill="#C3C9D1" stroke="#F4F4EF" stroke-width="5" stroke-linejoin="round"/>
</svg>
