<svg xmlns="http://www.w3.org/2000/svg" viewBox="-139.5 -139.5 279.0 279.0">
  <g transform="translate(-0.00,-84.92) rotate(-0.00)"><rect x="-29.0" y="-18.5" width="58" height="37" rx="7" fill="#F4C61C" stroke="#141414" stroke-width="3"/></g>
<g transform="translate(-73.54,42.46) rotate(240.00)"><rect x="-29.0" y="-18.5" width="58" height="37" rx="7" fill="#1B1B1B" stroke="#141414" stroke-width="3"/></g>
<g transform="translate(73.54,42.46) rotate(120.00)"><rect x="-29.0" y="-18.5" width="58" height="37" rx="7" fill="#FCFCFA" stroke="#141414" stroke-width="3"/></g>
<polygon points="-34.64,-20.00 34.64,-20.00 0,40.00" fill="#D62828" stroke="#141414" stroke-width="3" stroke-linejoin="round"/>
  <polyline points="86.54,-16.28 88.89,-14.42 91.17,-12.52 93.37,-10.58 95.50,-8.60 97.55,-6.58 99.51,-4.52 101.40,-2.43 103.20,-0.32 104.92,1.83 106.55,4.00 108.10,6.19 109.56,8.40 110.92,10.63 112.20,12.88 113.39,15.14 114.49,17.41 115.49,19.69 116.40,21.98 117.22,24.26 117.95,26.55 118.58,28.83 119.11,31.11 119.55,33.38 119.90,35.65 120.15,37.89 120.31,40.13 120.37,42.34 120.34,44.54 120.22,46.71 120.00,48.85 119.69,50.97 119.29,53.06 118.80,55.11 118.21,57.13 117.54,59.11 116.78,61.04 115.92,62.94 114.99,64.79 113.97,66.60 112.86,68.35 111.67,70.05 110.40,71.70 109.05,73.29 107.62,74.83 106.11,76.30 104.53,77.71 102.88,79.06 101.15,80.35 99.35,81.56 97.49,82.71 95.56,83.79 93.57,84.79 91.52,85.72 89.41,86.58 87.24,87.36 85.01,88.06 82.74,88.68 80.41,89.22 78.03,89.69 75.62,90.07 73.15,90.36 70.65,90.58 68.11,90.71 65.54,90.75 62.93,90.71 60.29,90.58 57.63,90.37 54.94,90.07 52.23,89.68 49.50,89.21 46.76,88.65 44.00,88.00 41.23,87.27 38.45,86.44 35.67,85.54 32.88,84.54 30.10,83.46 27.32,82.30 24.54,81.05 21.77,79.72 19.01,78.31 16.26,76.81 13.54,75.23 10.83,73.58 8.14,71.84 5.47,70.03 2.83,68.14 0.22,66.17 -2.36,64.13 -4.90,62.03 -7.41,59.85 -9.88,57.60 -12.31,55.28 -14.69,52.90 -17.04,50.46 -19.33,47.95 -21.57,45.39 -23.77,42.77 -25.91,40.09 -27.99,37.36 -30.02,34.58 -31.99,31.75 -33.90,28.87 -35.74,25.96 -37.53,23.00 -39.24,20.00 -40.89,16.96 -42.47,13.89 -43.99,10.79 -45.43,7.66 -46.80,4.51" fill="none" stroke="#141414" stroke-width="11" stroke-linecap="round" stroke-linejoin="round"/>
<polyline points="-57.50,-65.81 -57.09,-68.79 -56.61,-71.72 -56.05,-74.62 -55.42,-77.47 -54.72,-80.27 -53.95,-83.02 -53.10,-85.71 -52.19,-88.35 -51.22,-90.93 -50.18,-93.45 -49.07,-95.91 -47.90,-98.30 -46.67,-100.62 -45.39,-102.88 -44.04,-105.06 -42.64,-107.17 -41.19,-109.20 -39.68,-111.16 -38.13,-113.04 -36.53,-114.84 -34.88,-116.55 -33.19,-118.19 -31.45,-119.73 -29.68,-121.19 -27.87,-122.57 -26.03,-123.85 -24.15,-125.04 -22.24,-126.14 -20.31,-127.15 -18.35,-128.07 -16.37,-128.89 -14.37,-129.61 -12.35,-130.25 -10.31,-130.78 -8.27,-131.22 -6.21,-131.56 -4.14,-131.80 -2.07,-131.95 -0.00,-132.00 2.07,-131.95 4.14,-131.80 6.21,-131.56 8.27,-131.22 10.31,-130.78 12.35,-130.25 14.37,-129.61 16.37,-128.89 18.35,-128.07 20.31,-127.15 22.24,-126.14 24.15,-125.04 26.03,-123.85 27.87,-122.57 29.68,-121.19 31.45,-119.73 33.19,-118.19 34.88,-116.55 36.53,-114.84 38.13,-113.04 39.68,-111.16 41.19,-109.20 42.64,-107.17 44.04,-105.06 45.39,-102.88 46.67,-100.62 47.90,-98.30 49.07,-95.91 50.18,-93.45 51.22,-90.93 52.19,-88.35 53.10,-85.71 53.95,-83.02 54.72,-80.27 55.42,-77.47 56.05,-74.62 56.61,-71.72 57.09,-68.79 57.50,-65.81 57.83,-62.79 58.09,-59.74 58.27,-56.65 58.37,-53.54 58.39,-50.39 58.34,-47.22 58.21,-44.03 58.00,-40.83 57.71,-37.60 57.34,-34.36 56.89,-31.11 56.36,-27.86 55.75,-24.59 55.07,-21.33 54.30,-18.07 53.46,-14.81 52.54,-11.56 51.54,-8.31 50.47,-5.08 49.32,-1.87 48.10,1.33 46.80,4.51 45.43,7.66 43.99,10.79 42.47,13.89 40.89,16.96 39.24,20.00 37.53,23.00 35.74,25.96 33.90,28.87 31.99,31.75 30.02,34.58 27.99,37.36" fill="none" stroke="#141414" stroke-width="11" stroke-linecap="round" stroke-linejoin="round"/>
<polyline points="-27.32,82.30 -30.10,83.46 -32.88,84.54 -35.67,85.54 -38.45,86.44 -41.23,87.27 -44.00,88.00 -46.76,88.65 -49.50,89.21 -52.23,89.68 -54.94,90.07 -57.63,90.37 -60.29,90.58 -62.93,90.71 -65.54,90.75 -68.11,90.71 -70.65,90.58 -73.15,90.36 -75.62,90.07 -78.03,89.69 -80.41,89.22 -82.74,88.68 -85.01,88.06 -87.24,87.36 -89.41,86.58 -91.52,85.72 -93.57,84.79 -95.56,83.79 -97.49,82.71 -99.35,81.56 -101.15,80.35 -102.88,79.06 -104.53,77.71 -106.11,76.30 -107.62,74.83 -109.05,73.29 -110.40,71.70 -111.67,70.05 -112.86,68.35 -113.97,66.60 -114.99,64.79 -115.92,62.94 -116.78,61.04 -117.54,59.11 -118.21,57.13 -118.80,55.11 -119.29,53.06 -119.69,50.97 -120.00,48.85 -120.22,46.71 -120.34,44.54 -120.37,42.34 -120.31,40.13 -120.15,37.89 -119.90,35.65 -119.55,33.38 -119.11,31.11 -118.58,28.83 -117.95,26.55 -117.22,24.26 -116.40,21.98 -115.49,19.69 -114.49,17.41 -113.39,15.14 -112.20,12.88 -110.92,10.63 -109.56,8.40 -108.10,6.19 -106.55,4.00 -104.92,1.83 -103.20,-0.32 -101.40,-2.43 -99.51,-4.52 -97.55,-6.58 -95.50,-8.60 -93.37,-10.58 -91.17,-12.52 -88.89,-14.42 -86.54,-16.28 -84.12,-18.09 -81.62,-19.86 -79.06,-21.57 -76.44,-23.24 -73.75,-24.85 -71.00,-26.41 -68.19,-27.91 -65.32,-29.35 -62.40,-30.73 -59.43,-32.05 -56.41,-33.30 -53.34,-34.50 -50.22,-35.62 -47.07,-36.68 -43.87,-37.68 -40.64,-38.60 -37.37,-39.45 -34.08,-40.23 -30.75,-40.94 -27.40,-41.58 -24.02,-42.15 -20.63,-42.64 -17.22,-43.05 -13.79,-43.39 -10.35,-43.66 -6.91,-43.85 -3.46,-43.96 0.00,-44.00 3.46,-43.96 6.91,-43.85 10.35,-43.66 13.79,-43.39 17.22,-43.05 20.63,-42.64" fill="none" stroke="#141414" stroke-width="11" stroke-linecap="round" stroke-linejoin="round"/>
</svg>
