<svg xmlns="http://www.w3.org/2000/svg" viewBox="-143.0 -143.0 286.0 286.0">
<rect x="-143.0" y="-143.0" width="286.0" height="286.0" fill="#FFFFFF"/>
<polygon points="55.39,-33.71 57.42,-32.89 59.43,-32.05 61.42,-31.18 63.38,-30.27 65.32,-29.35 67.24,-28.39 69.13,-27.41 71.00,-26.41 72.84,-25.38 74.65,-24.32 76.44,-23.24 78.20,-22.14 79.92,-21.01 81.62,-19.86 83.29,-18.69 84.93,-17.49 86.54,-16.28 88.12,-15.05 89.66,-13.79 91.17,-12.52 92.65,-11.23 94.09,-9.92 95.50,-8.60 96.87,-7.25 98.21,-5.89 99.51,-4.52 100.78,-3.13 102.01,-1.73 103.20,-0.32 104.36,1.11 105.47,2.55 106.55,4.00 107.59,5.46 108.59,6.93 109.56,8.40 110.48,9.89 111.36,11.38 112.20,12.88 113.01,14.39 113.77,15.90 114.49,17.41 115.17,18.93 115.81,20.45 116.40,21.98 116.96,23.50 117.47,25.02 117.95,26.55 118.38,28.07 118.77,29.59 119.11,31.11 119.42,32.63 119.68,34.14 119.90,35.65 120.08,37.15 120.22,38.64 120.31,40.13 120.36,41.61 120.37,43.08 120.34,44.54 120.27,45.99 120.16,47.43 120.00,48.85 119.81,50.27 119.57,51.67 119.29,53.06 118.97,54.43 118.61,55.79 118.21,57.13 117.77,58.45 117.29,59.76 116.78,61.04 116.22,62.31 115.62,63.56 114.99,64.79 114.32,66.00 113.61,67.19 112.86,68.35 112.07,69.49 111.25,70.61 110.40,71.70 109.51,72.77 108.58,73.81 107.62,74.83 106.62,75.82 105.59,76.78 104.53,77.71 103.44,78.62 102.31,79.50 101.15,80.35 99.96,81.16 98.74,81.95 97.49,82.71 96.21,83.44 94.91,84.13 93.57,84.79 92.21,85.42 90.82,86.01 89.41,86.58 87.97,87.10 86.50,87.60 85.01,88.06 83.50,88.48 81.97,88.87 80.41,89.22 78.83,89.54 77.23,89.82 75.62,90.07 73.98,90.27 72.32,90.44 70.65,90.58 68.96,90.67 67.26,90.73 65.54,90.75 63.80,90.73 62.06,90.68 60.29,90.58 58.52,90.45 56.74,90.28 54.94,90.07 53.14,89.82 51.33,89.53 49.50,89.21 47.68,88.84 45.84,88.44 44.00,88.00 42.15,87.52 40.31,87.00 38.45,86.44 36.60,85.85 34.74,85.22 32.88,84.54 31.03,83.83 29.17,83.09 27.32,82.30 25.46,81.48 23.61,80.62 21.77,79.72 19.93,78.79 18.09,77.82 16.26,76.81 14.44,75.77 12.63,74.69 10.83,73.58 9.03,72.43 7.25,71.24 5.47,70.03 3.71,68.78 1.96,67.49 0.22,66.17" fill="#FCFCFA"/>
<polygon points="-56.89,-31.11 -57.20,-33.28 -57.47,-35.44 -57.71,-37.60 -57.91,-39.75 -58.08,-41.90 -58.21,-44.03 -58.31,-46.16 -58.37,-48.28 -58.39,-50.39 -58.39,-52.49 -58.34,-54.58 -58.27,-56.65 -58.16,-58.71 -58.01,-60.76 -57.83,-62.79 -57.62,-64.81 -57.37,-66.80 -57.09,-68.79 -56.77,-70.75 -56.43,-72.69 -56.05,-74.62 -55.64,-76.52 -55.19,-78.41 -54.72,-80.27 -54.21,-82.11 -53.67,-83.92 -53.10,-85.71 -52.50,-87.48 -51.88,-89.22 -51.22,-90.93 -50.53,-92.62 -49.81,-94.28 -49.07,-95.91 -48.30,-97.51 -47.50,-99.08 -46.67,-100.62 -45.82,-102.13 -44.95,-103.61 -44.04,-105.06 -43.12,-106.47 -42.16,-107.86 -41.19,-109.20 -40.19,-110.52 -39.17,-111.80 -38.13,-113.04 -37.06,-114.25 -35.98,-115.42 -34.88,-116.55 -33.75,-117.65 -32.61,-118.71 -31.45,-119.73 -30.27,-120.72 -29.08,-121.66 -27.87,-122.57 -26.64,-123.43 -25.40,-124.26 -24.15,-125.04 -22.88,-125.79 -21.60,-126.49 -20.31,-127.15 -19.01,-127.77 -17.69,-128.35 -16.37,-128.89 -15.04,-129.38 -13.70,-129.84 -12.35,-130.25 -10.99,-130.61 -9.63,-130.94 -8.27,-131.22 -6.90,-131.46 -5.52,-131.65 -4.14,-131.80 -2.76,-131.91 -1.38,-131.98 -0.00,-132.00 1.38,-131.98 2.76,-131.91 4.14,-131.80 5.52,-131.65 6.90,-131.46 8.27,-131.22 9.63,-130.94 10.99,-130.61 12.35,-130.25 13.70,-129.84 15.04,-129.38 16.37,-128.89 17.69,-128.35 19.01,-127.77 20.31,-127.15 21.60,-126.49 22.88,-125.79 24.15,-125.04 25.40,-124.26 26.64,-123.43 27.87,-122.57 29.08,-121.66 30.27,-120.72 31.45,-119.73 32.61,-118.71 33.75,-117.65 34.88,-116.55 35.98,-115.42 37.06,-114.25 38.13,-113.04 39.17,-111.80 40.19,-110.52 41.19,-109.20 42.16,-107.86 43.12,-106.47 44.04,-105.06 44.95,-103.61 45.82,-102.13 46.67,-100.62 47.50,-99.08 48.30,-97.51 49.07,-95.91 49.81,-94.28 50.53,-92.62 51.22,-90.93 51.88,-89.22 52.50,-87.48 53.10,-85.71 53.67,-83.92 54.21,-82.11 54.72,-80.27 55.19,-78.41 55.64,-76.52 56.05,-74.62 56.43,-72.69 56.77,-70.75 57.09,-68.79 57.37,-66.80 57.62,-64.81 57.83,-62.79 58.01,-60.76 58.16,-58.71 58.27,-56.65 58.34,-54.58 58.39,-52.49 58.39,-50.39 58.37,-48.28 58.31,-46.16 58.21,-44.03 58.08,-41.90 57.91,-39.75 57.71,-37.60 57.47,-35.44 57.20,-33.28" fill="#F4C61C"/>
<polygon points="1.50,64.82 -0.22,66.17 -1.96,67.49 -3.71,68.78 -5.47,70.03 -7.25,71.24 -9.03,72.43 -10.83,73.58 -12.63,74.69 -14.44,75.77 -16.26,76.81 -18.09,77.82 -19.93,78.79 -21.77,79.72 -23.61,80.62 -25.46,81.48 -27.32,82.30 -29.17,83.09 -31.03,83.83 -32.88,84.54 -34.74,85.22 -36.60,85.85 -38.45,86.44 -40.31,87.00 -42.15,87.52 -44.00,88.00 -45.84,88.44 -47.68,88.84 -49.50,89.21 -51.33,89.53 -53.14,89.82 -54.94,90.07 -56.74,90.28 -58.52,90.45 -60.29,90.58 -62.06,90.68 -63.80,90.73 -65.54,90.75 -67.26,90.73 -68.96,90.67 -70.65,90.58 -72.32,90.44 -73.98,90.27 -75.62,90.07 -77.23,89.82 -78.83,89.54 -80.41,89.22 -81.97,88.87 -83.50,88.48 -85.01,88.06 -86.50,87.60 -87.97,87.10 -89.41,86.58 -90.82,86.01 -92.21,85.42 -93.57,84.79 -94.91,84.13 -96.21,83.44 -97.49,82.71 -98.74,81.95 -99.96,81.16 -101.15,80.35 -102.31,79.50 -103.44,78.62 -104.53,77.71 -105.59,76.78 -106.62,75.82 -107.62,74.83 -108.58,73.81 -109.51,72.77 -110.40,71.70 -111.25,70.61 -112.07,69.49 -112.86,68.35 -113.61,67.19 -114.32,66.00 -114.99,64.79 -115.62,63.56 -116.22,62.31 -116.78,61.04 -117.29,59.76 -117.77,58.45 -118.21,57.13 -118.61,55.79 -118.97,54.43 -119.29,53.06 -119.57,51.67 -119.81,50.27 -120.00,48.85 -120.16,47.43 -120.27,45.99 -120.34,44.54 -120.37,43.08 -120.36,41.61 -120.31,40.13 -120.22,38.64 -120.08,37.15 -119.90,35.65 -119.68,34.14 -119.42,32.63 -119.11,31.11 -118.77,29.59 -118.38,28.07 -117.95,26.55 -117.47,25.02 -116.96,23.50 -116.40,21.98 -115.81,20.45 -115.17,18.93 -114.49,17.41 -113.77,15.90 -113.01,14.39 -112.20,12.88 -111.36,11.38 -110.48,9.89 -109.56,8.40 -108.59,6.93 -107.59,5.46 -106.55,4.00 -105.47,2.55 -104.36,1.11 -103.20,-0.32 -102.01,-1.73 -100.78,-3.13 -99.51,-4.52 -98.21,-5.89 -96.87,-7.25 -95.50,-8.60 -94.09,-9.92 -92.65,-11.23 -91.17,-12.52 -89.66,-13.79 -88.12,-15.05 -86.54,-16.28 -84.93,-17.49 -83.29,-18.69 -81.62,-19.86 -79.92,-21.01 -78.20,-22.14 -76.44,-23.24 -74.65,-24.32 -72.84,-25.38 -71.00,-26.41 -69.13,-27.41 -67.24,-28.39 -65.32,-29.35 -63.38,-30.27 -61.42,-31.18 -59.43,-32.05 -57.42,-32.89" fill="#1B1B1B"/>
<polygon points="0.22,66.17 -1.50,64.82 -3.21,63.44 -4.90,62.03 -6.58,60.58 -8.24,59.10 -9.88,57.60 -11.50,56.06 -13.11,54.49 -14.69,52.90 -16.26,51.28 -17.81,49.63 -19.33,47.95 -20.83,46.25 -22.31,44.52 -23.77,42.77 -25.20,40.99 -26.61,39.18 -27.99,37.36 -29.35,35.51 -30.68,33.64 -31.99,31.75 -33.27,29.84 -34.52,27.91 -35.74,25.96 -36.94,23.99 -38.11,22.00 -39.24,20.00 -40.35,17.98 -41.43,15.94 -42.47,13.89 -43.49,11.83 -44.48,9.75 -45.43,7.66 -46.35,5.56 -47.24,3.45 -48.10,1.33 -48.92,-0.80 -49.71,-2.94 -50.47,-5.08 -51.19,-7.24 -51.88,-9.39 -52.54,-11.56 -53.16,-13.72 -53.75,-15.90 -54.30,-18.07 -54.82,-20.24 -55.30,-22.42 -55.75,-24.59 -56.17,-26.77 -56.54,-28.94 -56.89,-31.11 -57.42,-32.89 -55.39,-33.71 -53.34,-34.50 -51.27,-35.26 -49.18,-35.99 -47.07,-36.68 -44.94,-37.35 -42.80,-37.99 -40.64,-38.60 -38.47,-39.18 -36.28,-39.72 -34.08,-40.23 -31.86,-40.72 -29.64,-41.17 -27.40,-41.58 -25.15,-41.97 -22.90,-42.32 -20.63,-42.64 -18.36,-42.92 -16.08,-43.17 -13.79,-43.39 -11.50,-43.58 -9.21,-43.73 -6.91,-43.85 -4.61,-43.93 -2.30,-43.98 0.00,-44.00 2.30,-43.98 4.61,-43.93 6.91,-43.85 9.21,-43.73 11.50,-43.58 13.79,-43.39 16.08,-43.17 18.36,-42.92 20.63,-42.64 22.90,-42.32 25.15,-41.97 27.40,-41.58 29.64,-41.17 31.86,-40.72 34.08,-40.23 36.28,-39.72 38.47,-39.18 40.64,-38.60 42.80,-37.99 44.94,-37.35 47.07,-36.68 49.18,-35.99 51.27,-35.26 53.34,-34.50 55.39,-33.71 57.20,-33.28 56.89,-31.11 56.54,-28.94 56.17,-26.77 55.75,-24.59 55.30,-22.42 54.82,-20.24 54.30,-18.07 53.75,-15.90 53.16,-13.72 52.54,-11.56 51.88,-9.39 51.19,-7.24 50.47,-5.08 49.71,-2.94 48.92,-0.80 48.10,1.33 47.24,3.45 46.35,5.56 45.43,7.66 44.48,9.75 43.49,11.83 42.47,13.89 41.43,15.94 40.35,17.98 39.24,20.00 38.11,22.00 36.94,23.99 35.74,25.96 34.52,27.91 33.27,29.84 31.99,31.75 30.68,33.64 29.35,35.51 27.99,37.36 26.61,39.18 25.20,40.99 23.77,42.77 22.31,44.52 20.83,46.25 19.33,47.95 17.81,49.63 16.26,51.28 14.69,52.90 13.11,54.49 11.50,56.06 9.88,57.60 8.24,59.10 6.58,60.58 4.90,62.03 3.21,63.44 1.50,64.82" fill="#D62828"/>
<polyline points="0.00,-44.00 2.30,-43.98 4.61,-43.93 6.91,-43.85 9.21,-43.73 11.50,-43.58 13.79,-43.39 16.08,-43.17 18.36,-42.92 20.63,-42.64 22.90,-42.32 25.15,-41.97 27.40,-41.58 29.64,-41.17 31.86,-40.72 34.08,-40.23 36.28,-39.72 38.47,-39.18 40.64,-38.60 42.80,-37.99 44.94,-37.35 47.07,-36.68 49.18,-35.99 51.27,-35.26 53.34,-34.50 55.39,-33.71 57.42,-32.89 59.43,-32.05 61.42,-31.18 63.38,-30.27 65.32,-29.35 67.24,-28.39 69.13,-27.41 71.00,-26.41 72.84,-25.38 74.65,-24.32 76.44,-23.24 78.20,-22.14 79.92,-21.01 81.62,-19.86 83.29,-18.69 84.93,-17.49 86.54,-16.28 88.12,-15.05 89.66,-13.79 91.17,-12.52 92.65,-11.23 94.09,-9.92 95.50,-8.60 96.87,-7.25 98.21,-5.89 99.51,-4.52 100.78,-3.13 102.01,-1.73 103.20,-0.32 104.36,1.11 105.47,2.55 106.55,4.00 107.59,5.46 108.59,6.93 109.56,8.40 110.48,9.89 111.36,11.38 112.20,12.88 113.01,14.39 113.77,15.90 114.49,17.41 115.17,18.93 115.81,20.45 116.40,21.98 116.96,23.50 117.47,25.02 117.95,26.55 118.38,28.07 118.77,29.59 119.11,31.11 119.42,32.63 119.68,34.14 119.90,35.65 120.08,37.15 120.22,38.64 120.31,40.13 120.36,41.61 120.37,43.08 120.34,44.54 120.27,45.99 120.16,47.43 120.00,48.85 119.81,50.27 119.57,51.67 119.29,53.06 118.97,54.43 118.61,55.79 118.21,57.13 117.77,58.45 117.29,59.76 116.78,61.04 116.22,62.31 115.62,63.56 114.99,64.79 114.32,66.00 113.61,67.19 112.86,68.35 112.07,69.49 111.25,70.61 110.40,71.70 109.51,72.77 108.58,73.81 107.62,74.83 106.62,75.82 105.59,76.78 104.53,77.71 103.44,78.62 102.31,79.50 101.15,80.35 99.96,81.16 98.74,81.95 97.49,82.71 96.21,83.44 94.91,84.13 93.57,84.79 92.21,85.42 90.82,86.01 89.41,86.58 87.97,87.10 86.50,87.60 85.01,88.06 83.50,88.48 81.97,88.87 80.41,89.22 78.83,89.54 77.23,89.82 75.62,90.07 73.98,90.27 72.32,90.44 70.65,90.58 68.96,90.67 67.26,90.73 65.54,90.75 63.80,90.73 62.06,90.68 60.29,90.58 58.52,90.45 56.74,90.28 54.94,90.07 53.14,89.82 51.33,89.53 49.50,89.21 47.68,88.84 45.84,88.44 44.00,88.00 42.15,87.52 40.31,87.00 38.45,86.44 36.60,85.85 34.74,85.22 32.88,84.54 31.03,83.83 29.17,83.09 27.32,82.30 25.46,81.48 23.61,80.62 21.77,79.72 19.93,78.79 18.09,77.82 16.26,76.81 14.44,75.77 12.63,74.69 10.83,73.58 9.03,72.43 7.25,71.24 5.47,70.03 3.71,68.78 1.96,67.49 0.22,66.17 -1.50,64.82 -3.21,63.44 -4.90,62.03 -6.58,60.58 -8.24,59.10 -9.88,57.60 -11.50,56.06 -13.11,54.49 -14.69,52.90 -16.26,51.28 -17.81,49.63 -19.33,47.95 -20.83,46.25 -22.31,44.52 -23.77,42.77 -25.20,40.99 -26.61,39.18 -27.99,37.36 -29.35,35.51 -30.68,33.64 -31.99,31.75 -33.27,29.84 -34.52,27.91 -35.74,25.96 -36.94,23.99 -38.11,22.00 -39.24,20.00 -40.35,17.98 -41.43,15.94 -42.47,13.89 -43.49,11.83 -44.48,9.75 -45.43,7.66 -46.35,5.56 -47.24,3.45 -48.10,1.33 -48.92,-0.80 -49.71,-2.94 -50.47,-5.08 -51.19,-7.24 -51.88,-9.39 -52.54,-11.56 -53.16,-13.72 -53.75,-15.90 -54.30,-18.07 -54.82,-20.24 -55.30,-22.42 -55.75,-24.59 -56.17,-26.77 -56.54,-28.94 -56.89,-31.11 -57.20,-33.28 -57.47,-35.44 -57.71,-37.60 -57.91,-39.75 -58.08,-41.90 -58.21,-44.03 -58.31,-46.16 -58.37,-48.28 -58.39,-50.39 -58.39,-52.49 -58.34,-54.58 -58.27,-56.65 -58.16,-58.71 -58.01,-60.76 -57.83,-62.79 -57.62,-64.81 -57.37,-66.80 -57.09,-68.79 -56.77,-70.75 -56.43,-72.69 -56.05,-74.62 -55.64,-76.52 -55.19,-78.41 -54.72,-80.27 -54.21,-82.11 -53.67,-83.92 -53.10,-85.71 -52.50,-87.48 -51.88,-89.22 -51.22,-90.93 -50.53,-92.62 -49.81,-94.28 -49.07,-95.91 -48.30,-97.51 -47.50,-99.08 -46.67,-100.62 -45.82,-102.13 -44.95,-103.61 -44.04,-105.06 -43.12,-106.47 -42.16,-107.86 -41.19,-109.20 -40.19,-110.52 -39.17,-111.80 -38.13,-113.04 -37.06,-114.25 -35.98,-115.42 -34.88,-116.55 -33.75,-117.65 -32.61,-118.71 -31.45,-119.73 -30.27,-120.72 -29.08,-121.66 -27.87,-122.57 -26.64,-123.43 -25.40,-124.26 -24.15,-125.04 -22.88,-125.79 -21.60,-126.49 -20.31,-127.15 -19.01,-127.77 -17.69,-128.35 -16.37,-128.89 -15.04,-129.38 -13.70,-129.84 -12.35,-130.25 -10.99,-130.61 -9.63,-130.94 -8.27,-131.22 -6.90,-131.46 -5.52,-131.65 -4.14,-131.80 -2.76,-131.91 -1.38,-131.98 -0.00,-132.00 1.38,-131.98 2.76,-131.91 4.14,-131.80 5.52,-131.65 6.90,-131.46 8.27,-131.22 9.63,-130.94 10.99,-130.61 12.35,-130.25 13.70,-129.84 15.04,-129.38 16.37,-128.89 17.69,-128.35 19.01,-127.77 20.31,-127.15 21.60,-126.49 22.88,-125.79 24.15,-125.04 25.40,-124.26 26.64,-123.43 27.87,-122.57 29.08,-121.66 30.27,-120.72 31.45,-119.73 32.61,-118.71 33.75,-117.65 34.88,-116.55 35.98,-115.42 37.06,-114.25 38.13,-113.04 39.17,-111.80 40.19,-110.52 41.19,-109.20 42.16,-107.86 43.12,-106.47 44.04,-105.06 44.95,-103.61 45.82,-102.13 46.67,-100.62 47.50,-99.08 48.30,-97.51 49.07,-95.91 49.81,-94.28 50.53,-92.62 51.22,-90.93 51.88,-89.22 52.50,-87.48 53.10,-85.71 53.67,-83.92 54.21,-82.11 54.72,-80.27 55.19,-78.41 55.64,-76.52 56.05,-74.62 56.43,-72.69 56.77,-70.75 57.09,-68.79 57.37,-66.80 57.62,-64.81 57.83,-62.79 58.01,-60.76 58.16,-58.71 58.27,-56.65 58.34,-54.58 58.39,-52.49 58.39,-50.39 58.37,-48.28 58.31,-46.16 58.21,-44.03 58.08,-41.90 57.91,-39.75 57.71,-37.60 57.47,-35.44 57.20,-33.28 56.89,-31.11 56.54,-28.94 56.17,-26.77 55.75,-24.59 55.30,-22.42 54.82,-20.24 54.30,-18.07 53.75,-15.90 53.16,-13.72 52.54,-11.56 51.88,-9.39 51.19,-7.24 50.47,-5.08 49.71,-2.94 48.92,-0.80 48.10,1.33 47.24,3.45 46.35,5.56 45.43,7.66 44.48,9.75 43.49,11.83 42.47,13.89 41.43,15.94 40.35,17.98 39.24,20.00 38.11,22.00 36.94,23.99 35.74,25.96 34.52,27.91 33.27,29.84 31.99,31.75 30.68,33.64 29.35,35.51 27.99,37.36 26.61,39.18 25.20,40.99 23.77,42.77 22.31,44.52 20.83,46.25 19.33,47.95 17.81,49.63 16.26,51.28 14.69,52.90 13.11,54.49 11.50,56.06 9.88,57.60 8.24,59.10 6.58,60.58 4.90,62.03 3.21,63.44 1.50,64.82 -0.22,66.17 -1.96,67.49 -3.71,68.78 -5.47,70.03 -7.25,71.24 -9.03,72.43 -10.83,73.58 -12.63,74.69 -14.44,75.77 -16.26,76.81 -18.09,77.82 -19.93,78.79 -21.77,79.72 -23.61,80.62 -25.46,81.48 -27.32,82.30 -29.17,83.09 -31.03,83.83 -32.88,84.54 -34.74,85.22 -36.60,85.85 -38.45,86.44 -40.31,87.00 -42.15,87.52 -44.00,88.00 -45.84,88.44 -47.68,88.84 -49.50,89.21 -51.33,89.53 -53.14,89.82 -54.94,90.07 -56.74,90.28 -58.52,90.45 -60.29,90.58 -62.06,90.68 -63.80,90.73 -65.54,90.75 -67.26,90.73 -68.96,90.67 -70.65,90.58 -72.32,90.44 -73.98,90.27 -75.62,90.07 -77.23,89.82 -78.83,89.54 -80.41,89.22 -81.97,88.87 -83.50,88.48 -85.01,88.06 -86.50,87.60 -87.97,87.10 -89.41,86.58 -90.82,86.01 -92.21,85.42 -93.57,84.79 -94.91,84.13 -96.21,83.44 -97.49,82.71 -98.74,81.95 -99.96,81.16 -101.15,80.35 -102.31,79.50 -103.44,78.62 -104.53,77.71 -105.59,76.78 -106.62,75.82 -107.62,74.83 -108.58,73.81 -109.51,72.77 -110.40,71.70 -111.25,70.61 -112.07,69.49 -112.86,68.35 -113.61,67.19 -114.32,66.00 -114.99,64.79 -115.62,63.56 -116.22,62.31 -116.78,61.04 -117.29,59.76 -117.77,58.45 -118.21,57.13 -118.61,55.79 -118.97,54.43 -119.29,53.06 -119.57,51.67 -119.81,50.27 -120.00,48.85 -120.16,47.43 -120.27,45.99 -120.34,44.54 -120.37,43.08 -120.36,41.61 -120.31,40.13 -120.22,38.64 -120.08,37.15 -119.90,35.65 -119.68,34.14 -119.42,32.63 -119.11,31.11 -118.77,29.59 -118.38,28.07 -117.95,26.55 -117.47,25.02 -116.96,23.50 -116.40,21.98 -115.81,20.45 -115.17,18.93 -114.49,17.41 -113.77,15.90 -113.01,14.39 -112.20,12.88 -111.36,11.38 -110.48,9.89 -109.56,8.40 -108.59,6.93 -107.59,5.46 -106.55,4.00 -105.47,2.55 -104.36,1.11 -103.20,-0.32 -102.01,-1.73 -100.78,-3.13 -99.51,-4.52 -98.21,-5.89 -96.87,-7.25 -95.50,-8.60 -94.09,-9.92 -92.65,-11.23 -91.17,-12.52 -89.66,-13.79 -88.12,-15.05 -86.54,-16.28 -84.93,-17.49 -83.29,-18.69 -81.62,-19.86 -79.92,-21.01 -78.20,-22.14 -76.44,-23.24 -74.65,-24.32 -72.84,-25.38 -71.00,-26.41 -69.13,-27.41 -67.24,-28.39 -65.32,-29.35 -63.38,-30.27 -61.42,-31.18 -59.43,-32.05 -57.42,-32.89 -55.39,-33.71 -53.34,-34.50 -51.27,-35.26 -49.18,-35.99 -47.07,-36.68 -44.94,-37.35 -42.80,-37.99 -40.64,-38.60 -38.47,-39.18 -36.28,-39.72 -34.08,-40.23 -31.86,-40.72 -29.64,-41.17 -27.40,-41.58 -25.15,-41.97 -22.90,-42.32 -20.63,-42.64 -18.36,-42.92 -16.08,-43.17 -13.79,-43.39 -11.50,-43.58 -9.21,-43.73 -6.91,-43.85 -4.61,-43.93 -2.30,-43.98 -0.00,-44.00" fill="none" stroke="#141414" stroke-width="18" stroke-linecap="round" stroke-linejoin="round"/>
</svg>
