<svg xmlns="http://www.w3.org/2000/svg" viewBox="104.3 136.7 591.4 427.0">
  <rect x="104.3" y="136.7" width="591.4" height="427.0" fill="#FBFBF7"/>
  <polygon points="292.0,297.6 508.0,297.6 400.0,484.7" fill="#D62828" stroke="#141414" stroke-width="4" stroke-linejoin="round"/>
  <g transform="translate(400.0,226.6) rotate(0)">
    <rect x="-108" y="-71" width="216" height="142" rx="14" fill="#F4C61C" stroke="#141414" stroke-width="4"/>
    <rect x="-98" y="-64" width="196" height="42" rx="6" fill="#FDFAEE" stroke="#141414" stroke-width="3"/>
    <g transform="translate(-57.163,-33.500) scale(0.027221,-0.027221)"><path d="M289 -12Q201 -12 136.0 17.0Q71 46 31 96L118 192Q156 150 201.5 130.0Q247 110 294 110Q348 110 376.0 134.0Q404 158 404 203Q404 240 382.5 259.0Q361 278 310 286L237 298Q143 314 101.0 367.5Q59 421 59 498Q59 599 125.0 654.5Q191 710 310 710Q391 710 451.0 685.0Q511 660 548 617L463 522Q435 553 397.0 570.5Q359 588 311 588Q210 588 210 505Q210 469 232.5 451.0Q255 433 306 424L379 411Q464 396 510.0 347.0Q556 298 556 215Q556 166 539.0 124.5Q522 83 488.0 52.5Q454 22 404.5 5.0Q355 -12 289 -12ZM975 575V0H825V575H624V698H1176V575ZM1635 0 1591 168H1400L1357 0H1205L1394 698H1606L1795 0ZM1500 553H1492L1424 289H1568ZM2089 -12Q2001 -12 1936.0 17.0Q1871 46 1831 96L1918 192Q1956 150 2001.5 130.0Q2047 110 2094 110Q2148 110 2176.0 134.0Q2204 158 2204 203Q2204 240 2182.5 259.0Q2161 278 2110 286L2037 298Q1943 314 1901.0 367.5Q1859 421 1859 498Q1859 599 1925.0 654.5Q1991 710 2110 710Q2191 710 2251.0 685.0Q2311 660 2348 617L2263 522Q2235 553 2197.0 570.5Q2159 588 2111 588Q2010 588 2010 505Q2010 469 2032.5 451.0Q2055 433 2106 424L2179 411Q2264 396 2310.0 347.0Q2356 298 2356 215Q2356 166 2339.0 124.5Q2322 83 2288.0 52.5Q2254 22 2204.5 5.0Q2155 -12 2089 -12ZM2475 0V111H2625V587H2475V698H2925V587H2775V111H2925V0ZM3431 311 3439 506H3430L3300 147L3170 506H3161L3169 311V0H3039V698H3216L3302 463H3310L3396 698H3561V0H3431ZM4035 0 3991 168H3800L3757 0H3605L3794 698H4006L4195 0ZM3900 553H3892L3824 289H3968Z" fill="#141414"/><path d="M1500 553H1492L1424 289H1568Z" fill="#D62828"/><path d="M3900 553H3892L3824 289H3968Z" fill="#D62828"/></g>
    <rect x="-96" y="-17" width="192" height="66" rx="10" fill="#F7EECD" stroke="#141414" stroke-width="3"/>
    <polygon points="-81.0,47.0 -64.8,17.6 -38.9,32.9 -21.1,2.2 0.0,-17.0 21.1,2.2 38.9,32.9 64.8,17.6 81.0,47.0" fill="#D62828"/>
<polygon points="-58.3,47.0 -46.7,22.9 -28.0,35.5 -15.2,10.3 0.0,-5.5 15.2,10.3 28.0,35.5 46.7,22.9 58.3,47.0" fill="#F39220"/>
<polygon points="-34.0,47.0 -27.2,29.9 -16.3,38.8 -8.8,21.0 0.0,9.9 8.8,21.0 16.3,38.8 27.2,29.9 34.0,47.0" fill="#F7E05A"/>
  </g><g transform="translate(284.5,426.7) rotate(-120)">
    <rect x="-108" y="-71" width="216" height="142" rx="14" fill="#1B1B1B" stroke="#141414" stroke-width="4"/>
    <rect x="-98" y="-64" width="196" height="42" rx="6" fill="#FDFAEE" stroke="#141414" stroke-width="3"/>
    
    <rect x="-96" y="-17" width="192" height="66" rx="10" fill="#4E4E4E" stroke="#141414" stroke-width="3"/>
    <circle cx="-49" cy="16" r="24" fill="none" stroke="#FBFBF7" stroke-width="2"/><circle cx="-49" cy="16" r="17" fill="none" stroke="#FBFBF7" stroke-width="2"/><line x1="-42.0" y1="16.0" x2="-34.0" y2="16.0" stroke="#FBFBF7" stroke-width="2"/><line x1="-45.5" y1="22.1" x2="-41.5" y2="29.0" stroke="#FBFBF7" stroke-width="2"/><line x1="-52.5" y1="22.1" x2="-56.5" y2="29.0" stroke="#FBFBF7" stroke-width="2"/><line x1="-56.0" y1="16.0" x2="-64.0" y2="16.0" stroke="#FBFBF7" stroke-width="2"/><line x1="-52.5" y1="9.9" x2="-56.5" y2="3.0" stroke="#FBFBF7" stroke-width="2"/><line x1="-45.5" y1="9.9" x2="-41.5" y2="3.0" stroke="#FBFBF7" stroke-width="2"/><circle cx="-49" cy="16" r="4" fill="#FBFBF7"/><circle cx="49" cy="16" r="24" fill="none" stroke="#FBFBF7" stroke-width="2"/><circle cx="49" cy="16" r="17" fill="none" stroke="#FBFBF7" stroke-width="2"/><line x1="56.0" y1="16.0" x2="64.0" y2="16.0" stroke="#FBFBF7" stroke-width="2"/><line x1="52.5" y1="22.1" x2="56.5" y2="29.0" stroke="#FBFBF7" stroke-width="2"/><line x1="45.5" y1="22.1" x2="41.5" y2="29.0" stroke="#FBFBF7" stroke-width="2"/><line x1="42.0" y1="16.0" x2="34.0" y2="16.0" stroke="#FBFBF7" stroke-width="2"/><line x1="45.5" y1="9.9" x2="41.5" y2="3.0" stroke="#FBFBF7" stroke-width="2"/><line x1="52.5" y1="9.9" x2="56.5" y2="3.0" stroke="#FBFBF7" stroke-width="2"/><circle cx="49" cy="16" r="4" fill="#FBFBF7"/>
  </g><g transform="translate(515.5,426.7) rotate(120)">
    <rect x="-108" y="-71" width="216" height="142" rx="14" fill="#FCFCFA" stroke="#141414" stroke-width="4"/>
    <rect x="-98" y="-64" width="196" height="42" rx="6" fill="#141414" stroke="#141414" stroke-width="3"/>
    
    <rect x="-96" y="-17" width="192" height="66" rx="10" fill="#ECECE6" stroke="#141414" stroke-width="3"/>
    <circle cx="-49" cy="16" r="24" fill="none" stroke="#141414" stroke-width="2"/><circle cx="-49" cy="16" r="17" fill="none" stroke="#141414" stroke-width="2"/><line x1="-42.0" y1="16.0" x2="-34.0" y2="16.0" stroke="#141414" stroke-width="2"/><line x1="-45.5" y1="22.1" x2="-41.5" y2="29.0" stroke="#141414" stroke-width="2"/><line x1="-52.5" y1="22.1" x2="-56.5" y2="29.0" stroke="#141414" stroke-width="2"/><line x1="-56.0" y1="16.0" x2="-64.0" y2="16.0" stroke="#141414" stroke-width="2"/><line x1="-52.5" y1="9.9" x2="-56.5" y2="3.0" stroke="#141414" stroke-width="2"/><line x1="-45.5" y1="9.9" x2="-41.5" y2="3.0" stroke="#141414" stroke-width="2"/><circle cx="-49" cy="16" r="4" fill="#141414"/><circle cx="49" cy="16" r="24" fill="none" stroke="#141414" stroke-width="2"/><circle cx="49" cy="16" r="17" fill="none" stroke="#141414" stroke-width="2"/><line x1="56.0" y1="16.0" x2="64.0" y2="16.0" stroke="#141414" stroke-width="2"/><line x1="52.5" y1="22.1" x2="56.5" y2="29.0" stroke="#141414" stroke-width="2"/><line x1="45.5" y1="22.1" x2="41.5" y2="29.0" stroke="#141414" stroke-width="2"/><line x1="42.0" y1="16.0" x2="34.0" y2="16.0" stroke="#141414" stroke-width="2"/><line x1="45.5" y1="9.9" x2="41.5" y2="3.0" stroke="#141414" stroke-width="2"/><line x1="52.5" y1="9.9" x2="56.5" y2="3.0" stroke="#141414" stroke-width="2"/><circle cx="49" cy="16" r="4" fill="#141414"/>
  </g>
  <polygon points="440.5,359.8 446.0,354.4 446.7,355.5 441.5,360.5" fill="#141414" stroke="#141414" stroke-width="1"/><polygon points="372.0,323.4 379.5,325.4 379.6,324.3 372.6,322.2" fill="#5A5A5A" stroke="#141414" stroke-width="1"/><polygon points="379.6,395.4 381.4,402.6 380.0,402.7 378.5,395.8" fill="#141414" stroke="#141414" stroke-width="1"/><polygon points="380.7,394.8 382.8,402.5 381.4,402.6 379.6,395.4" fill="#141414" stroke="#141414" stroke-width="1"/><polygon points="439.5,359.1 445.1,353.3 446.0,354.4 440.5,359.8" fill="#141414" stroke="#141414" stroke-width="1"/><polygon points="372.6,322.2 379.6,324.3 379.8,323.1 373.2,320.9" fill="#5A5A5A" stroke="#141414" stroke-width="1"/><polygon points="441.5,360.5 446.7,355.5 447.5,356.7 442.4,361.2" fill="#141414" stroke="#141414" stroke-width="1"/><polygon points="371.4,324.7 379.4,326.6 379.5,325.4 372.0,323.4" fill="#5A5A5A" stroke="#141414" stroke-width="1"/><polygon points="378.5,395.8 380.0,402.7 378.7,402.8 377.4,396.3" fill="#141414" stroke="#141414" stroke-width="1"/><polygon points="381.7,394.3 384.2,402.3 382.8,402.5 380.7,394.8" fill="#141414" stroke="#141414" stroke-width="1"/><polygon points="438.5,358.5 444.2,352.2 445.1,353.3 439.5,359.1" fill="#141414" stroke="#141414" stroke-width="1"/><polygon points="373.2,320.9 379.8,323.1 379.9,321.9 373.8,319.7" fill="#5A5A5A" stroke="#141414" stroke-width="1"/><polygon points="442.4,361.2 447.5,356.7 448.2,357.8 443.3,361.9" fill="#141414" stroke="#141414" stroke-width="1"/><polygon points="370.9,326.1 379.4,327.8 379.4,326.6 371.4,324.7" fill="#5A5A5A" stroke="#141414" stroke-width="1"/><polygon points="377.4,396.3 378.7,402.8 377.3,402.8 376.4,396.7" fill="#141414" stroke="#141414" stroke-width="1"/><polygon points="382.8,393.7 385.6,402.1 384.2,402.3 381.7,394.3" fill="#141414" stroke="#141414" stroke-width="1"/><polygon points="373.8,319.7 379.9,321.9 380.1,320.8 374.5,318.6" fill="#5A5A5A" stroke="#141414" stroke-width="1"/><polygon points="437.5,357.8 443.3,351.1 444.2,352.2 438.5,358.5" fill="#141414" stroke="#141414" stroke-width="1"/><polygon points="443.3,361.9 448.2,357.8 448.8,359.0 444.2,362.6" fill="#141414" stroke="#141414" stroke-width="1"/><polygon points="370.4,327.4 379.4,329.0 379.4,327.8 370.9,326.1" fill="#5A5A5A" stroke="#141414" stroke-width="1"/><polygon points="376.4,396.7 377.3,402.8 376.0,402.8 375.3,397.1" fill="#141414" stroke="#141414" stroke-width="1"/><polygon points="383.8,393.1 387.0,401.8 385.6,402.1 382.8,393.7" fill="#141414" stroke="#141414" stroke-width="1"/><polygon points="374.5,318.6 380.1,320.8 380.3,319.7 375.2,317.5" fill="#5A5A5A" stroke="#141414" stroke-width="1"/><polygon points="436.4,357.2 442.3,350.0 443.3,351.1 437.5,357.8" fill="#141414" stroke="#141414" stroke-width="1"/><polygon points="444.2,362.6 448.8,359.0 449.4,360.2 445.0,363.4" fill="#141414" stroke="#141414" stroke-width="1"/><polygon points="370.0,328.8 379.4,330.2 379.4,329.0 370.4,327.4" fill="#5A5A5A" stroke="#141414" stroke-width="1"/><polygon points="384.9,392.5 388.5,401.5 387.0,401.8 383.8,393.1" fill="#141414" stroke="#141414" stroke-width="1"/><polygon points="375.3,397.1 376.0,402.8 374.7,402.7 374.2,397.4" fill="#141414" stroke="#141414" stroke-width="1"/><polygon points="435.4,356.7 441.3,348.9 442.3,350.0 436.4,357.2" fill="#141414" stroke="#141414" stroke-width="1"/><polygon points="375.2,317.5 380.3,319.7 380.6,318.6 375.9,316.4" fill="#5A5A5A" stroke="#141414" stroke-width="1"/><polygon points="445.0,363.4 449.4,360.2 450.0,361.3 445.8,364.1" fill="#141414" stroke="#141414" stroke-width="1"/><polygon points="369.6,330.2 379.4,331.4 379.4,330.2 370.0,328.8" fill="#5A5A5A" stroke="#141414" stroke-width="1"/><polygon points="385.9,391.9 389.9,401.1 388.5,401.5 384.9,392.5" fill="#141414" stroke="#141414" stroke-width="1"/><polygon points="374.2,397.4 374.7,402.7 373.4,402.6 373.1,397.7" fill="#141414" stroke="#141414" stroke-width="1"/><polygon points="375.9,316.4 380.6,318.6 380.9,317.5 376.6,315.3" fill="#5A5A5A" stroke="#141414" stroke-width="1"/><polygon points="434.3,356.1 440.3,347.9 441.3,348.9 435.4,356.7" fill="#141414" stroke="#141414" stroke-width="1"/><polygon points="445.8,364.1 450.0,361.3 450.6,362.4 446.5,365.0" fill="#141414" stroke="#141414" stroke-width="1"/><polygon points="369.2,331.7 379.5,332.7 379.4,331.4 369.6,330.2" fill="#5A5A5A" stroke="#141414" stroke-width="1"/><polygon points="386.9,391.2 391.3,400.7 389.9,401.1 385.9,391.9" fill="#141414" stroke="#141414" stroke-width="1"/><polygon points="373.1,397.7 373.4,402.6 372.2,402.6 372.0,397.8" fill="#141414" stroke="#141414" stroke-width="1"/><polygon points="376.6,315.3 380.9,317.5 381.4,316.6 377.2,314.3" fill="#5A5A5A" stroke="#141414" stroke-width="1"/><polygon points="433.2,355.6 439.2,346.8 440.3,347.9 434.3,356.1" fill="#141414" stroke="#141414" stroke-width="1"/><polygon points="446.5,365.0 450.6,362.4 451.2,363.5 447.1,365.9" fill="#141414" stroke="#141414" stroke-width="1"/><polygon points="368.9,333.1 379.6,333.9 379.5,332.7 369.2,331.7" fill="#5A5A5A" stroke="#141414" stroke-width="1"/><polygon points="372.0,397.8 372.2,402.6 371.0,402.6 371.0,397.8" fill="#141414" stroke="#141414" stroke-width="1"/><polygon points="387.9,390.5 392.8,400.2 391.3,400.7 386.9,391.2" fill="#141414" stroke="#141414" stroke-width="1"/><polygon points="377.2,314.3 381.4,316.6 381.9,315.6 377.8,313.2" fill="#5A5A5A" stroke="#141414" stroke-width="1"/><polygon points="432.0,355.0 438.0,345.8 439.2,346.8 433.2,355.6" fill="#141414" stroke="#141414" stroke-width="1"/><polygon points="447.1,365.9 451.2,363.5 451.8,364.6 447.6,366.9" fill="#141414" stroke="#141414" stroke-width="1"/><polygon points="368.6,334.6 379.7,335.1 379.6,333.9 368.9,333.1" fill="#5A5A5A" stroke="#141414" stroke-width="1"/><polygon points="371.0,397.8 371.0,402.6 369.7,402.6 369.9,397.8" fill="#141414" stroke="#141414" stroke-width="1"/><polygon points="388.9,389.7 394.2,399.7 392.8,400.2 387.9,390.5" fill="#141414" stroke="#141414" stroke-width="1"/><polygon points="377.8,313.2 381.9,315.6 382.5,314.7 378.5,312.1" fill="#5A5A5A" stroke="#141414" stroke-width="1"/><polygon points="430.9,354.5 436.9,344.9 438.0,345.8 432.0,355.0" fill="#141414" stroke="#141414" stroke-width="1"/><polygon points="447.6,366.9 451.8,364.6 452.4,365.6 448.1,367.8" fill="#141414" stroke="#141414" stroke-width="1"/><polygon points="368.4,336.2 379.9,336.4 379.7,335.1 368.6,334.6" fill="#5A5A5A" stroke="#141414" stroke-width="1"/><polygon points="369.9,397.8 369.7,402.6 368.5,402.5 368.9,397.7" fill="#141414" stroke="#141414" stroke-width="1"/><polygon points="389.9,389.0 395.6,399.1 394.2,399.7 388.9,389.7" fill="#141414" stroke="#141414" stroke-width="1"/><polygon points="429.7,354.1 435.6,343.9 436.9,344.9 430.9,354.5" fill="#141414" stroke="#141414" stroke-width="1"/><polygon points="378.5,312.1 382.5,314.7 383.1,313.9 379.1,311.1" fill="#5A5A5A" stroke="#141414" stroke-width="1"/><polygon points="448.1,367.8 452.4,365.6 452.9,366.7 448.6,368.7" fill="#141414" stroke="#141414" stroke-width="1"/><polygon points="368.2,337.7 380.1,337.6 379.9,336.4 368.4,336.2" fill="#5A5A5A" stroke="#141414" stroke-width="1"/><polygon points="368.9,397.7 368.5,402.5 367.3,402.4 367.8,397.7" fill="#141414" stroke="#141414" stroke-width="1"/><polygon points="390.9,388.2 397.1,398.5 395.6,399.1 389.9,389.0" fill="#141414" stroke="#141414" stroke-width="1"/><polygon points="428.5,353.6 434.4,343.0 435.6,343.9 429.7,354.1" fill="#141414" stroke="#141414" stroke-width="1"/><polygon points="379.1,311.1 383.1,313.9 383.7,313.0 379.8,310.2" fill="#5A5A5A" stroke="#141414" stroke-width="1"/><polygon points="448.6,368.7 452.9,366.7 453.4,367.8 449.0,369.7" fill="#141414" stroke="#141414" stroke-width="1"/><polygon points="368.0,339.3 380.3,338.9 380.1,337.6 368.2,337.7" fill="#5A5A5A" stroke="#141414" stroke-width="1"/><polygon points="367.8,397.7 367.3,402.4 366.2,402.3 366.8,397.5" fill="#141414" stroke="#141414" stroke-width="1"/><polygon points="391.9,387.4 398.5,397.9 397.1,398.5 390.9,388.2" fill="#141414" stroke="#141414" stroke-width="1"/><polygon points="379.8,310.2 383.7,313.0 384.3,312.2 380.5,309.2" fill="#5A5A5A" stroke="#141414" stroke-width="1"/><polygon points="427.3,353.2 433.1,342.1 434.4,343.0 428.5,353.6" fill="#141414" stroke="#141414" stroke-width="1"/><polygon points="449.0,369.7 453.4,367.8 453.8,368.9 449.3,370.6" fill="#141414" stroke="#141414" stroke-width="1"/><polygon points="367.9,340.8 380.5,340.1 380.3,338.9 368.0,339.3" fill="#5A5A5A" stroke="#141414" stroke-width="1"/><polygon points="366.8,397.5 366.2,402.3 365.0,402.1 365.8,397.4" fill="#141414" stroke="#141414" stroke-width="1"/><polygon points="392.9,386.5 399.9,397.2 398.5,397.9 391.9,387.4" fill="#141414" stroke="#141414" stroke-width="1"/><polygon points="380.5,309.2 384.3,312.2 384.9,311.5 381.3,308.3" fill="#5A5A5A" stroke="#141414" stroke-width="1"/><polygon points="426.1,352.8 431.8,341.2 433.1,342.1 427.3,353.2" fill="#141414" stroke="#141414" stroke-width="1"/><polygon points="449.3,370.6 453.8,368.9 454.2,370.0 449.7,371.5" fill="#141414" stroke="#141414" stroke-width="1"/><polygon points="367.8,342.4 380.8,341.4 380.5,340.1 367.9,340.8" fill="#5A5A5A" stroke="#141414" stroke-width="1"/><polygon points="365.8,397.4 365.0,402.1 363.9,401.9 364.9,397.2" fill="#141414" stroke="#141414" stroke-width="1"/><polygon points="393.8,385.7 401.3,396.4 399.9,397.2 392.9,386.5" fill="#141414" stroke="#141414" stroke-width="1"/><polygon points="424.9,352.4 430.4,340.4 431.8,341.2 426.1,352.8" fill="#141414" stroke="#141414" stroke-width="1"/><polygon points="381.3,308.3 384.9,311.5 385.6,310.7 382.1,307.5" fill="#5A5A5A" stroke="#141414" stroke-width="1"/><polygon points="449.7,371.5 454.2,370.0 454.6,371.1 450.0,372.4" fill="#141414" stroke="#141414" stroke-width="1"/><polygon points="367.8,344.0 381.1,342.7 380.8,341.4 367.8,342.4" fill="#5A5A5A" stroke="#141414" stroke-width="1"/><polygon points="394.8,384.8 402.7,395.6 401.3,396.4 393.8,385.7" fill="#141414" stroke="#141414" stroke-width="1"/><polygon points="364.9,397.2 363.9,401.9 362.7,401.6 363.9,397.0" fill="#141414" stroke="#141414" stroke-width="1"/><polygon points="382.1,307.5 385.6,310.7 386.2,310.0 382.8,306.7" fill="#5A5A5A" stroke="#141414" stroke-width="1"/><polygon points="423.7,352.0 429.0,339.6 430.4,340.4 424.9,352.4" fill="#141414" stroke="#141414" stroke-width="1"/><polygon points="450.0,372.4 454.6,371.1 454.9,372.2 450.2,373.4" fill="#141414" stroke="#141414" stroke-width="1"/><polygon points="367.8,345.6 381.4,343.9 381.1,342.7 367.8,344.0" fill="#5A5A5A" stroke="#141414" stroke-width="1"/><polygon points="395.7,383.9 404.1,394.8 402.7,395.6 394.8,384.8" fill="#141414" stroke="#141414" stroke-width="1"/><polygon points="363.9,397.0 362.7,401.6 361.6,401.3 363.0,396.7" fill="#141414" stroke="#141414" stroke-width="1"/><polygon points="382.8,306.7 386.2,310.0 386.9,309.4 383.7,305.9" fill="#5A5A5A" stroke="#141414" stroke-width="1"/><polygon points="422.4,351.7 427.6,338.8 429.0,339.6 423.7,352.0" fill="#141414" stroke="#141414" stroke-width="1"/><polygon points="450.2,373.4 454.9,372.2 450.4,374.3 455.1,373.3" fill="#141414" stroke="#141414" stroke-width="1"/><polygon points="367.8,347.3 381.7,345.2 381.4,343.9 367.8,345.6" fill="#5A5A5A" stroke="#141414" stroke-width="1"/><polygon points="396.6,382.9 405.5,393.9 404.1,394.8 395.7,383.9" fill="#141414" stroke="#141414" stroke-width="1"/><polygon points="363.0,396.7 361.6,401.3 362.1,396.4 360.6,401.0" fill="#141414" stroke="#141414" stroke-width="1"/><polygon points="383.7,305.9 386.9,309.4 384.5,305.1 387.6,308.8" fill="#5A5A5A" stroke="#141414" stroke-width="1"/><polygon points="421.1,351.4 426.1,338.0 427.6,338.8 422.4,351.7" fill="#141414" stroke="#141414" stroke-width="1"/><polygon points="455.1,373.3 450.4,374.3 450.6,375.2 455.3,374.4" fill="#5A5A5A" stroke="#141414" stroke-width="1"/><polygon points="367.9,348.9 382.1,346.4 381.7,345.2 367.8,347.3" fill="#5A5A5A" stroke="#141414" stroke-width="1"/><polygon points="360.6,401.0 362.1,396.4 361.2,396.1 359.5,400.6" fill="#5A5A5A" stroke="#141414" stroke-width="1"/><polygon points="397.5,382.0 406.9,393.0 405.5,393.9 396.6,382.9" fill="#141414" stroke="#141414" stroke-width="1"/><polygon points="387.6,308.8 384.5,305.1 385.4,304.4 388.3,308.2" fill="#141414" stroke="#141414" stroke-width="1"/><polygon points="419.9,351.1 424.7,337.3 426.1,338.0 421.1,351.4" fill="#141414" stroke="#141414" stroke-width="1"/><polygon points="368.1,350.5 382.5,347.7 382.1,346.4 367.9,348.9" fill="#5A5A5A" stroke="#141414" stroke-width="1"/><polygon points="455.3,374.4 450.6,375.2 450.8,376.1 455.5,375.5" fill="#5A5A5A" stroke="#141414" stroke-width="1"/><polygon points="359.5,400.6 361.2,396.1 360.4,395.8 358.5,400.2" fill="#5A5A5A" stroke="#141414" stroke-width="1"/><polygon points="398.4,381.0 408.2,392.1 406.9,393.0 397.5,382.0" fill="#141414" stroke="#141414" stroke-width="1"/><polygon points="388.3,308.2 385.4,304.4 386.2,303.7 389.1,307.6" fill="#141414" stroke="#141414" stroke-width="1"/><polygon points="418.6,350.8 423.2,336.7 424.7,337.3 419.9,351.1" fill="#141414" stroke="#141414" stroke-width="1"/><polygon points="368.3,352.2 382.9,348.9 382.5,347.7 368.1,350.5" fill="#5A5A5A" stroke="#141414" stroke-width="1"/><polygon points="455.5,375.5 450.8,376.1 450.9,377.0 455.6,376.6" fill="#5A5A5A" stroke="#141414" stroke-width="1"/><polygon points="358.5,400.2 360.4,395.8 359.6,395.4 357.5,399.7" fill="#5A5A5A" stroke="#141414" stroke-width="1"/><polygon points="399.2,380.0 409.5,391.1 408.2,392.1 398.4,381.0" fill="#141414" stroke="#141414" stroke-width="1"/><polygon points="417.3,350.6 421.6,336.0 423.2,336.7 418.6,350.8" fill="#141414" stroke="#141414" stroke-width="1"/><polygon points="389.1,307.6 386.2,303.7 387.1,303.1 389.8,307.1" fill="#141414" stroke="#141414" stroke-width="1"/><polygon points="368.5,353.8 383.4,350.2 382.9,348.9 368.3,352.2" fill="#5A5A5A" stroke="#141414" stroke-width="1"/><polygon points="455.6,376.6 450.9,377.0 450.9,377.9 455.7,377.7" fill="#5A5A5A" stroke="#141414" stroke-width="1"/><polygon points="357.5,399.7 359.6,395.4 358.8,395.0 356.5,399.3" fill="#5A5A5A" stroke="#141414" stroke-width="1"/><polygon points="400.1,379.0 410.8,390.0 409.5,391.1 399.2,380.0" fill="#141414" stroke="#141414" stroke-width="1"/><polygon points="389.8,307.1 387.1,303.1 388.1,302.5 390.5,306.6" fill="#141414" stroke="#141414" stroke-width="1"/><polygon points="416.0,350.4 420.1,335.4 421.6,336.0 417.3,350.6" fill="#141414" stroke="#141414" stroke-width="1"/><polygon points="455.7,377.7 450.9,377.9 450.9,378.8 455.7,378.7" fill="#5A5A5A" stroke="#141414" stroke-width="1"/><polygon points="368.8,355.5 383.8,351.4 383.4,350.2 368.5,353.8" fill="#5A5A5A" stroke="#141414" stroke-width="1"/><polygon points="356.5,399.3 358.8,395.0 358.0,394.6 355.6,398.7" fill="#5A5A5A" stroke="#141414" stroke-width="1"/><polygon points="400.9,377.9 412.1,388.9 410.8,390.0 400.1,379.0" fill="#141414" stroke="#141414" stroke-width="1"/><polygon points="390.5,306.6 388.1,302.5 389.0,302.0 391.3,306.2" fill="#141414" stroke="#141414" stroke-width="1"/><polygon points="414.7,350.2 418.5,334.8 420.1,335.4 416.0,350.4" fill="#141414" stroke="#141414" stroke-width="1"/><polygon points="455.7,378.7 450.9,378.8 450.9,379.7 455.7,379.8" fill="#5A5A5A" stroke="#141414" stroke-width="1"/><polygon points="369.1,357.1 384.3,352.6 383.8,351.4 368.8,355.5" fill="#5A5A5A" stroke="#141414" stroke-width="1"/><polygon points="355.6,398.7 358.0,394.6 357.3,394.1 354.7,398.2" fill="#5A5A5A" stroke="#141414" stroke-width="1"/><polygon points="401.7,376.9 413.4,387.8 412.1,388.9 400.9,377.9" fill="#141414" stroke="#141414" stroke-width="1"/><polygon points="413.3,350.0 416.9,334.3 418.5,334.8 414.7,350.2" fill="#141414" stroke="#141414" stroke-width="1"/><polygon points="391.3,306.2 389.0,302.0 389.9,301.5 392.1,305.8" fill="#141414" stroke="#141414" stroke-width="1"/><polygon points="369.4,358.8 384.9,353.9 384.3,352.6 369.1,357.1" fill="#5A5A5A" stroke="#141414" stroke-width="1"/><polygon points="455.7,379.8 450.9,379.7 450.9,380.5 455.7,380.9" fill="#5A5A5A" stroke="#141414" stroke-width="1"/><polygon points="354.7,398.2 357.3,394.1 356.6,393.7 353.8,397.6" fill="#5A5A5A" stroke="#141414" stroke-width="1"/><polygon points="402.5,375.8 414.6,386.7 413.4,387.8 401.7,376.9" fill="#141414" stroke="#141414" stroke-width="1"/><polygon points="412.0,349.9 415.2,333.8 416.9,334.3 413.3,350.0" fill="#141414" stroke="#141414" stroke-width="1"/><polygon points="392.1,305.8 389.9,301.5 390.9,301.0 392.8,305.4" fill="#141414" stroke="#141414" stroke-width="1"/><polygon points="369.9,360.4 385.4,355.1 384.9,353.9 369.4,358.8" fill="#5A5A5A" stroke="#141414" stroke-width="1"/><polygon points="455.7,380.9 450.9,380.5 450.8,381.4 455.6,381.9" fill="#5A5A5A" stroke="#141414" stroke-width="1"/><polygon points="353.8,397.6 356.6,393.7 355.9,393.1 352.9,396.9" fill="#5A5A5A" stroke="#141414" stroke-width="1"/><polygon points="403.3,374.7 415.8,385.5 414.6,386.7 402.5,375.8" fill="#141414" stroke="#141414" stroke-width="1"/><polygon points="392.8,305.4 390.9,301.0 391.9,300.6 393.6,305.1" fill="#141414" stroke="#141414" stroke-width="1"/><polygon points="410.7,349.8 413.6,333.4 415.2,333.8 412.0,349.9" fill="#141414" stroke="#141414" stroke-width="1"/><polygon points="370.3,362.1 386.0,356.3 385.4,355.1 369.9,360.4" fill="#5A5A5A" stroke="#141414" stroke-width="1"/><polygon points="455.6,381.9 450.8,381.4 450.7,382.2 455.4,383.0" fill="#5A5A5A" stroke="#141414" stroke-width="1"/><polygon points="352.9,396.9 355.9,393.1 355.2,392.6 352.1,396.3" fill="#5A5A5A" stroke="#141414" stroke-width="1"/><polygon points="404.0,373.6 417.0,384.3 415.8,385.5 403.3,374.7" fill="#141414" stroke="#141414" stroke-width="1"/><polygon points="393.6,305.1 391.9,300.6 392.9,300.3 394.4,304.8" fill="#141414" stroke="#141414" stroke-width="1"/><polygon points="409.3,349.7 411.9,333.0 413.6,333.4 410.7,349.8" fill="#141414" stroke="#141414" stroke-width="1"/><polygon points="455.4,383.0 450.7,382.2 450.5,383.0 455.2,384.0" fill="#5A5A5A" stroke="#141414" stroke-width="1"/><polygon points="370.8,363.7 386.6,357.5 386.0,356.3 370.3,362.1" fill="#5A5A5A" stroke="#141414" stroke-width="1"/><polygon points="352.1,396.3 355.2,392.6 354.7,392.0 351.3,395.6" fill="#5A5A5A" stroke="#141414" stroke-width="1"/><polygon points="404.8,372.5 418.2,383.0 417.0,384.3 404.0,373.6" fill="#141414" stroke="#141414" stroke-width="1"/><polygon points="394.4,304.8 392.9,300.3 393.8,299.8 395.2,304.7" fill="#141414" stroke="#141414" stroke-width="1"/><polygon points="408.0,349.6 410.3,332.6 411.9,333.0 409.3,349.7" fill="#141414" stroke="#141414" stroke-width="1"/><polygon points="455.2,384.0 450.5,383.0 450.1,383.7 455.2,385.1" fill="#5A5A5A" stroke="#141414" stroke-width="1"/><polygon points="371.3,365.3 387.2,358.7 386.6,357.5 370.8,363.7" fill="#5A5A5A" stroke="#141414" stroke-width="1"/><polygon points="351.3,395.6 354.7,392.0 354.2,391.3 350.4,395.1" fill="#5A5A5A" stroke="#141414" stroke-width="1"/><polygon points="405.5,371.4 419.3,381.7 418.2,383.0 404.8,372.5" fill="#141414" stroke="#141414" stroke-width="1"/><polygon points="395.2,304.7 393.8,299.8 394.8,299.3 396.1,304.7" fill="#141414" stroke="#141414" stroke-width="1"/><polygon points="406.7,349.6 408.6,332.3 410.3,332.6 408.0,349.6" fill="#141414" stroke="#141414" stroke-width="1"/><polygon points="371.9,367.0 387.8,359.8 387.2,358.7 371.3,365.3" fill="#5A5A5A" stroke="#141414" stroke-width="1"/><polygon points="455.2,385.1 450.1,383.7 449.7,384.5 455.1,386.2" fill="#5A5A5A" stroke="#141414" stroke-width="1"/><polygon points="350.4,395.1 354.2,391.3 353.9,390.5 349.5,394.4" fill="#5A5A5A" stroke="#141414" stroke-width="1"/><polygon points="406.2,370.2 420.4,380.4 419.3,381.7 405.5,371.4" fill="#141414" stroke="#141414" stroke-width="1"/><polygon points="396.1,304.7 394.8,299.3 395.8,298.9 396.9,304.8" fill="#141414" stroke="#141414" stroke-width="1"/><polygon points="405.3,349.5 406.9,332.0 408.6,332.3 406.7,349.6" fill="#141414" stroke="#141414" stroke-width="1"/><polygon points="372.5,368.6 388.5,361.0 387.8,359.8 371.9,367.0" fill="#5A5A5A" stroke="#141414" stroke-width="1"/><polygon points="455.1,386.2 449.7,384.5 449.2,385.1 455.0,387.3" fill="#5A5A5A" stroke="#141414" stroke-width="1"/><polygon points="349.5,394.4 353.9,390.5 353.5,389.8 348.6,393.8" fill="#5A5A5A" stroke="#141414" stroke-width="1"/><polygon points="406.8,369.1 421.5,379.1 420.4,380.4 406.2,370.2" fill="#141414" stroke="#141414" stroke-width="1"/><polygon points="396.9,304.8 395.8,298.9 396.8,298.5 397.7,304.9" fill="#141414" stroke="#141414" stroke-width="1"/><polygon points="404.0,349.5 405.2,331.8 406.9,332.0 405.3,349.5" fill="#141414" stroke="#141414" stroke-width="1"/><polygon points="373.2,370.2 389.2,362.1 388.5,361.0 372.5,368.6" fill="#5A5A5A" stroke="#141414" stroke-width="1"/><polygon points="455.0,387.3 449.2,385.1 448.7,385.8 454.8,388.3" fill="#5A5A5A" stroke="#141414" stroke-width="1"/><polygon points="348.6,393.8 353.5,389.8 353.2,389.0 347.8,393.0" fill="#5A5A5A" stroke="#141414" stroke-width="1"/><polygon points="407.5,367.9 422.6,377.7 421.5,379.1 406.8,369.1" fill="#141414" stroke="#141414" stroke-width="1"/><polygon points="397.7,304.9 396.8,298.5 397.8,298.1 398.5,305.0" fill="#141414" stroke="#141414" stroke-width="1"/><polygon points="402.7,349.6 403.5,331.6 405.2,331.8 404.0,349.5" fill="#141414" stroke="#141414" stroke-width="1"/><polygon points="373.9,371.8 389.9,363.3 389.2,362.1 373.2,370.2" fill="#5A5A5A" stroke="#141414" stroke-width="1"/><polygon points="454.8,388.3 448.7,385.8 448.2,386.4 454.6,389.4" fill="#5A5A5A" stroke="#141414" stroke-width="1"/><polygon points="347.8,393.0 353.2,389.0 353.0,388.3 347.0,392.3" fill="#5A5A5A" stroke="#141414" stroke-width="1"/><polygon points="408.1,366.7 423.6,376.3 422.6,377.7 407.5,367.9" fill="#141414" stroke="#141414" stroke-width="1"/><polygon points="401.3,349.6 401.7,331.4 403.5,331.6 402.7,349.6" fill="#141414" stroke="#141414" stroke-width="1"/><polygon points="398.5,305.0 397.8,298.1 398.9,297.8 399.3,305.2" fill="#141414" stroke="#141414" stroke-width="1"/><polygon points="454.6,389.4 448.2,386.4 447.7,386.9 454.3,390.5" fill="#5A5A5A" stroke="#141414" stroke-width="1"/><polygon points="374.6,373.3 390.6,364.4 389.9,363.3 373.9,371.8" fill="#5A5A5A" stroke="#141414" stroke-width="1"/><polygon points="347.0,392.3 353.0,388.3 352.8,387.6 346.2,391.5" fill="#5A5A5A" stroke="#141414" stroke-width="1"/><polygon points="408.7,365.5 424.5,374.8 423.6,376.3 408.1,366.7" fill="#141414" stroke="#141414" stroke-width="1"/><polygon points="400.0,349.7 400.0,331.3 401.7,331.4 401.3,349.6" fill="#141414" stroke="#141414" stroke-width="1"/><polygon points="399.3,305.2 398.9,297.8 400.0,297.6 400.0,305.4" fill="#141414" stroke="#141414" stroke-width="1"/><polygon points="375.4,374.9 391.3,365.5 390.6,364.4 374.6,373.3" fill="#5A5A5A" stroke="#141414" stroke-width="1"/><polygon points="454.3,390.5 447.7,386.9 447.1,387.5 453.9,391.6" fill="#5A5A5A" stroke="#141414" stroke-width="1"/><polygon points="409.3,364.3 425.5,373.4 424.5,374.8 408.7,365.5" fill="#141414" stroke="#141414" stroke-width="1"/><polygon points="346.2,391.5 352.8,387.6 352.6,386.8 345.5,390.6" fill="#5A5A5A" stroke="#141414" stroke-width="1"/><polygon points="400.0,305.4 400.0,297.6 401.1,297.4 400.7,305.6" fill="#141414" stroke="#141414" stroke-width="1"/><polygon points="398.3,331.2 398.7,349.8 400.0,349.7 400.0,331.3" fill="#5A5A5A" stroke="#141414" stroke-width="1"/><polygon points="376.2,376.4 392.1,366.6 391.3,365.5 375.4,374.9" fill="#5A5A5A" stroke="#141414" stroke-width="1"/><polygon points="453.9,391.6 447.1,387.5 446.5,388.0 453.5,392.6" fill="#5A5A5A" stroke="#141414" stroke-width="1"/><polygon points="409.9,363.1 426.4,371.9 425.5,373.4 409.3,364.3" fill="#141414" stroke="#141414" stroke-width="1"/><polygon points="345.5,390.6 352.6,386.8 352.5,386.1 344.8,389.7" fill="#5A5A5A" stroke="#141414" stroke-width="1"/><polygon points="400.7,305.6 401.1,297.4 402.2,297.3 401.4,305.9" fill="#141414" stroke="#141414" stroke-width="1"/><polygon points="396.5,331.2 397.4,349.9 398.7,349.8 398.3,331.2" fill="#5A5A5A" stroke="#141414" stroke-width="1"/><polygon points="377.1,377.9 392.9,367.7 392.1,366.6 376.2,376.4" fill="#5A5A5A" stroke="#141414" stroke-width="1"/><polygon points="453.5,392.6 446.5,388.0 445.9,388.4 453.0,393.6" fill="#5A5A5A" stroke="#141414" stroke-width="1"/><polygon points="344.8,389.7 352.5,386.1 352.4,385.3 344.1,388.8" fill="#5A5A5A" stroke="#141414" stroke-width="1"/><polygon points="410.4,361.9 427.3,370.4 426.4,371.9 409.9,363.1" fill="#141414" stroke="#141414" stroke-width="1"/><polygon points="401.4,305.9 402.2,297.3 403.4,297.2 402.1,306.2" fill="#141414" stroke="#141414" stroke-width="1"/><polygon points="394.8,331.2 396.0,350.1 397.4,349.9 396.5,331.2" fill="#5A5A5A" stroke="#141414" stroke-width="1"/><polygon points="453.0,393.6 445.9,388.4 445.3,388.9 452.5,394.7" fill="#5A5A5A" stroke="#141414" stroke-width="1"/><polygon points="378.0,379.4 393.7,368.7 392.9,367.7 377.1,377.9" fill="#5A5A5A" stroke="#141414" stroke-width="1"/><polygon points="344.1,388.8 352.4,385.3 352.3,384.6 343.5,387.8" fill="#5A5A5A" stroke="#141414" stroke-width="1"/><polygon points="410.9,360.7 428.1,368.9 427.3,370.4 410.4,361.9" fill="#141414" stroke="#141414" stroke-width="1"/><polygon points="402.1,306.2 403.4,297.2 404.5,297.2 402.8,306.5" fill="#141414" stroke="#141414" stroke-width="1"/><polygon points="393.0,331.3 394.7,350.3 396.0,350.1 394.8,331.2" fill="#5A5A5A" stroke="#141414" stroke-width="1"/><polygon points="378.9,380.9 394.5,369.8 393.7,368.7 378.0,379.4" fill="#5A5A5A" stroke="#141414" stroke-width="1"/><polygon points="452.5,394.7 445.3,388.9 444.7,389.3 451.9,395.7" fill="#5A5A5A" stroke="#141414" stroke-width="1"/><polygon points="343.5,387.8 352.3,384.6 352.3,383.9 343.0,386.8" fill="#5A5A5A" stroke="#141414" stroke-width="1"/><polygon points="411.4,359.5 428.9,367.3 428.1,368.9 410.9,360.7" fill="#141414" stroke="#141414" stroke-width="1"/><polygon points="402.8,306.5 404.5,297.2 405.7,297.2 403.4,306.9" fill="#141414" stroke="#141414" stroke-width="1"/><polygon points="391.3,331.4 393.4,350.5 394.7,350.3 393.0,331.3" fill="#5A5A5A" stroke="#141414" stroke-width="1"/><polygon points="379.9,382.3 395.3,370.8 394.5,369.8 378.9,380.9" fill="#5A5A5A" stroke="#141414" stroke-width="1"/><polygon points="451.9,395.7 444.7,389.3 444.1,389.7 451.3,396.7" fill="#5A5A5A" stroke="#141414" stroke-width="1"/><polygon points="343.0,386.8 352.3,383.9 352.3,383.1 342.4,385.7" fill="#5A5A5A" stroke="#141414" stroke-width="1"/><polygon points="411.8,358.3 429.6,365.7 428.9,367.3 411.4,359.5" fill="#141414" stroke="#141414" stroke-width="1"/><polygon points="403.4,306.9 405.7,297.2 406.9,297.3 404.0,307.2" fill="#141414" stroke="#141414" stroke-width="1"/><polygon points="389.6,331.5 392.1,350.7 393.4,350.5 391.3,331.4" fill="#5A5A5A" stroke="#141414" stroke-width="1"/><polygon points="380.9,383.7 396.2,371.8 395.3,370.8 379.9,382.3" fill="#5A5A5A" stroke="#141414" stroke-width="1"/><polygon points="451.3,396.7 444.1,389.7 443.5,390.0 450.6,397.6" fill="#5A5A5A" stroke="#141414" stroke-width="1"/><polygon points="342.4,385.7 352.3,383.1 352.3,382.4 342.0,384.6" fill="#5A5A5A" stroke="#141414" stroke-width="1"/><polygon points="412.3,357.0 430.3,364.2 429.6,365.7 411.8,358.3" fill="#141414" stroke="#141414" stroke-width="1"/><polygon points="404.0,307.2 406.9,297.3 408.1,297.5 404.7,307.6" fill="#141414" stroke="#141414" stroke-width="1"/><polygon points="387.9,331.7 390.8,350.9 392.1,350.7 389.6,331.5" fill="#5A5A5A" stroke="#141414" stroke-width="1"/><polygon points="450.6,397.6 443.5,390.0 442.8,390.3 449.8,398.6" fill="#5A5A5A" stroke="#141414" stroke-width="1"/><polygon points="381.9,385.1 397.0,372.8 396.2,371.8 380.9,383.7" fill="#5A5A5A" stroke="#141414" stroke-width="1"/><polygon points="342.0,384.6 352.3,382.4 352.4,381.7 341.5,383.5" fill="#5A5A5A" stroke="#141414" stroke-width="1"/><polygon points="412.7,355.8 431.0,362.6 430.3,364.2 412.3,357.0" fill="#141414" stroke="#141414" stroke-width="1"/><polygon points="404.7,307.6 408.1,297.5 409.3,297.7 405.2,308.1" fill="#141414" stroke="#141414" stroke-width="1"/><polygon points="386.1,331.9 389.6,351.2 390.8,350.9 387.9,331.7" fill="#5A5A5A" stroke="#141414" stroke-width="1"/><polygon points="449.8,398.6 442.8,390.3 442.1,390.6 449.0,399.5" fill="#5A5A5A" stroke="#141414" stroke-width="1"/><polygon points="383.0,386.5 397.9,373.7 397.0,372.8 381.9,385.1" fill="#5A5A5A" stroke="#141414" stroke-width="1"/><polygon points="341.5,383.5 352.4,381.7 352.5,381.0 341.2,382.3" fill="#5A5A5A" stroke="#141414" stroke-width="1"/><polygon points="413.1,354.6 431.6,360.9 431.0,362.6 412.7,355.8" fill="#141414" stroke="#141414" stroke-width="1"/><polygon points="405.2,308.1 409.3,297.7 410.5,298.0 405.8,308.5" fill="#141414" stroke="#141414" stroke-width="1"/><polygon points="384.4,332.2 388.3,351.5 389.6,351.2 386.1,331.9" fill="#5A5A5A" stroke="#141414" stroke-width="1"/><polygon points="449.0,399.5 442.1,390.6 441.5,390.9 448.2,400.3" fill="#5A5A5A" stroke="#141414" stroke-width="1"/><polygon points="384.1,387.8 398.8,374.7 397.9,373.7 383.0,386.5" fill="#5A5A5A" stroke="#141414" stroke-width="1"/><polygon points="413.5,353.3 432.2,359.3 431.6,360.9 413.1,354.6" fill="#141414" stroke="#141414" stroke-width="1"/><polygon points="341.2,382.3 352.5,381.0 352.6,380.2 340.9,381.2" fill="#5A5A5A" stroke="#141414" stroke-width="1"/><polygon points="405.8,308.5 410.5,298.0 411.6,298.3 406.4,309.0" fill="#141414" stroke="#141414" stroke-width="1"/><polygon points="382.7,332.5 387.1,351.8 388.3,351.5 384.4,332.2" fill="#5A5A5A" stroke="#141414" stroke-width="1"/><polygon points="448.2,400.3 441.5,390.9 440.8,391.1 447.3,401.2" fill="#5A5A5A" stroke="#141414" stroke-width="1"/><polygon points="385.2,389.1 399.7,375.6 398.8,374.7 384.1,387.8" fill="#5A5A5A" stroke="#141414" stroke-width="1"/><polygon points="413.8,352.1 432.8,357.7 432.2,359.3 413.5,353.3" fill="#141414" stroke="#141414" stroke-width="1"/><polygon points="340.9,381.2 352.6,380.2 352.7,379.5 340.6,380.0" fill="#5A5A5A" stroke="#141414" stroke-width="1"/><polygon points="406.4,309.0 411.6,298.3 412.8,298.7 406.9,309.5" fill="#141414" stroke="#141414" stroke-width="1"/><polygon points="381.0,332.9 385.8,352.1 387.1,351.8 382.7,332.5" fill="#5A5A5A" stroke="#141414" stroke-width="1"/><polygon points="447.3,401.2 440.8,391.1 440.1,391.3 446.3,402.0" fill="#5A5A5A" stroke="#141414" stroke-width="1"/><polygon points="386.4,390.4 400.6,376.5 399.7,375.6 385.2,389.1" fill="#5A5A5A" stroke="#141414" stroke-width="1"/><polygon points="414.1,350.8 433.3,356.0 432.8,357.7 413.8,352.1" fill="#141414" stroke="#141414" stroke-width="1"/><polygon points="340.6,380.0 352.7,379.5 352.9,378.8 340.4,378.7" fill="#5A5A5A" stroke="#141414" stroke-width="1"/><polygon points="406.9,309.5 412.8,298.7 414.0,299.2 407.4,310.0" fill="#141414" stroke="#141414" stroke-width="1"/><polygon points="379.4,333.3 384.6,352.5 385.8,352.1 381.0,332.9" fill="#5A5A5A" stroke="#141414" stroke-width="1"/><polygon points="446.3,402.0 440.1,391.3 439.4,391.5 445.3,402.8" fill="#5A5A5A" stroke="#141414" stroke-width="1"/><polygon points="387.6,391.6 401.5,377.4 400.6,376.5 386.4,390.4" fill="#5A5A5A" stroke="#141414" stroke-width="1"/><polygon points="340.4,378.7 352.9,378.8 353.1,378.1 340.3,377.5" fill="#5A5A5A" stroke="#141414" stroke-width="1"/><polygon points="414.4,349.6 433.7,354.4 433.3,356.0 414.1,350.8" fill="#141414" stroke="#141414" stroke-width="1"/><polygon points="407.4,310.0 414.0,299.2 415.1,299.7 407.9,310.5" fill="#141414" stroke="#141414" stroke-width="1"/><polygon points="377.7,333.8 383.4,352.8 384.6,352.5 379.4,333.3" fill="#5A5A5A" stroke="#141414" stroke-width="1"/><polygon points="445.3,402.8 439.4,391.5 438.6,391.7 444.3,403.5" fill="#5A5A5A" stroke="#141414" stroke-width="1"/><polygon points="388.8,392.8 402.4,378.2 401.5,377.4 387.6,391.6" fill="#5A5A5A" stroke="#141414" stroke-width="1"/><polygon points="340.3,377.5 353.1,378.1 353.3,377.4 340.2,376.2" fill="#5A5A5A" stroke="#141414" stroke-width="1"/><polygon points="414.7,348.4 434.1,352.7 433.7,354.4 414.4,349.6" fill="#141414" stroke="#141414" stroke-width="1"/><polygon points="407.9,310.5 415.1,299.7 416.3,300.3 408.4,311.1" fill="#141414" stroke="#141414" stroke-width="1"/><polygon points="376.1,334.2 382.2,353.2 383.4,352.8 377.7,333.8" fill="#5A5A5A" stroke="#141414" stroke-width="1"/><polygon points="444.3,403.5 438.6,391.7 437.9,391.8 443.2,404.2" fill="#5A5A5A" stroke="#141414" stroke-width="1"/><polygon points="390.1,394.0 403.3,379.1 402.4,378.2 388.8,392.8" fill="#5A5A5A" stroke="#141414" stroke-width="1"/><polygon points="340.2,376.2 353.3,377.4 353.6,376.7 340.1,374.9" fill="#5A5A5A" stroke="#141414" stroke-width="1"/><polygon points="414.9,347.2 434.5,351.0 434.1,352.7 414.7,348.4" fill="#141414" stroke="#141414" stroke-width="1"/><polygon points="408.4,311.1 416.3,300.3 417.4,300.9 408.9,311.7" fill="#141414" stroke="#141414" stroke-width="1"/><polygon points="374.5,334.8 381.0,353.6 382.2,353.2 376.1,334.2" fill="#5A5A5A" stroke="#141414" stroke-width="1"/><polygon points="443.2,404.2 437.9,391.8 437.2,391.9 442.1,404.8" fill="#5A5A5A" stroke="#141414" stroke-width="1"/><polygon points="391.4,395.1 404.3,379.9 403.3,379.1 390.1,394.0" fill="#5A5A5A" stroke="#141414" stroke-width="1"/><polygon points="340.1,374.9 353.6,376.7 353.9,376.0 340.2,373.6" fill="#5A5A5A" stroke="#141414" stroke-width="1"/><polygon points="415.1,345.9 434.8,349.4 434.5,351.0 414.9,347.2" fill="#141414" stroke="#141414" stroke-width="1"/><polygon points="408.9,311.7 417.4,300.9 418.5,301.6 409.4,312.3" fill="#141414" stroke="#141414" stroke-width="1"/><polygon points="372.9,335.4 379.9,354.1 381.0,353.6 374.5,334.8" fill="#5A5A5A" stroke="#141414" stroke-width="1"/><polygon points="442.1,404.8 437.2,391.9 436.4,392.0 440.9,405.4" fill="#5A5A5A" stroke="#141414" stroke-width="1"/><polygon points="392.7,396.2 405.2,380.7 404.3,379.9 391.4,395.1" fill="#5A5A5A" stroke="#141414" stroke-width="1"/><polygon points="340.2,373.6 353.9,376.0 354.2,375.3 340.2,372.3" fill="#5A5A5A" stroke="#141414" stroke-width="1"/><polygon points="415.3,344.7 435.1,347.7 434.8,349.4 415.1,345.9" fill="#141414" stroke="#141414" stroke-width="1"/><polygon points="409.4,312.3 418.5,301.6 419.6,302.4 409.8,312.9" fill="#141414" stroke="#141414" stroke-width="1"/><polygon points="371.3,336.0 378.7,354.5 379.9,354.1 372.9,335.4" fill="#5A5A5A" stroke="#141414" stroke-width="1"/><polygon points="394.0,397.2 406.2,381.4 405.2,380.7 392.7,396.2" fill="#5A5A5A" stroke="#141414" stroke-width="1"/><polygon points="440.9,405.4 436.4,392.0 435.6,392.1 439.7,406.0" fill="#5A5A5A" stroke="#141414" stroke-width="1"/><polygon points="340.2,372.3 354.2,375.3 354.5,374.6 340.4,371.0" fill="#5A5A5A" stroke="#141414" stroke-width="1"/><polygon points="415.5,343.5 435.3,346.0 435.1,347.7 415.3,344.7" fill="#141414" stroke="#141414" stroke-width="1"/><polygon points="409.8,312.9 419.6,302.4 420.7,303.2 410.3,313.5" fill="#141414" stroke="#141414" stroke-width="1"/><polygon points="369.7,336.6 377.6,355.0 378.7,354.5 371.3,336.0" fill="#5A5A5A" stroke="#141414" stroke-width="1"/><polygon points="439.7,406.0 435.6,392.1 434.9,392.1 438.5,406.5" fill="#5A5A5A" stroke="#141414" stroke-width="1"/><polygon points="395.3,398.3 407.2,382.1 406.2,381.4 394.0,397.2" fill="#5A5A5A" stroke="#141414" stroke-width="1"/><polygon points="340.4,371.0 354.5,374.6 354.9,373.9 340.6,369.7" fill="#5A5A5A" stroke="#141414" stroke-width="1"/><polygon points="415.6,342.3 435.5,344.4 435.3,346.0 415.5,343.5" fill="#141414" stroke="#141414" stroke-width="1"/><polygon points="410.3,313.5 420.7,303.2 421.7,304.0 410.7,314.2" fill="#141414" stroke="#141414" stroke-width="1"/><polygon points="368.2,337.3 376.5,355.5 377.6,355.0 369.7,336.6" fill="#5A5A5A" stroke="#141414" stroke-width="1"/><polygon points="438.5,406.5 434.9,392.1 434.1,392.2 437.2,406.9" fill="#5A5A5A" stroke="#141414" stroke-width="1"/><polygon points="396.7,399.2 408.1,382.8 407.2,382.1 395.3,398.3" fill="#5A5A5A" stroke="#141414" stroke-width="1"/><polygon points="340.6,369.7 354.9,373.9 355.3,373.2 340.8,368.3" fill="#5A5A5A" stroke="#141414" stroke-width="1"/><polygon points="415.8,341.1 435.7,342.7 435.5,344.4 415.6,342.3" fill="#141414" stroke="#141414" stroke-width="1"/><polygon points="410.7,314.2 421.7,304.0 422.7,304.9 411.1,314.9" fill="#141414" stroke="#141414" stroke-width="1"/><polygon points="366.7,338.0 375.4,356.0 376.5,355.5 368.2,337.3" fill="#5A5A5A" stroke="#141414" stroke-width="1"/><polygon points="437.2,406.9 434.1,392.2 433.3,392.2 435.9,407.3" fill="#5A5A5A" stroke="#141414" stroke-width="1"/><polygon points="398.1,400.1 409.1,383.5 408.1,382.8 396.7,399.2" fill="#5A5A5A" stroke="#141414" stroke-width="1"/><polygon points="415.8,340.0 435.7,341.0 435.7,342.7 415.8,341.1" fill="#141414" stroke="#141414" stroke-width="1"/><polygon points="340.8,368.3 355.3,373.2 355.7,372.5 341.2,367.0" fill="#5A5A5A" stroke="#141414" stroke-width="1"/><polygon points="411.1,314.9 422.7,304.9 423.7,305.9 411.5,315.6" fill="#141414" stroke="#141414" stroke-width="1"/><polygon points="365.2,338.8 374.4,356.5 375.4,356.0 366.7,338.0" fill="#5A5A5A" stroke="#141414" stroke-width="1"/><polygon points="435.9,407.3 433.3,392.2 432.4,392.1 434.6,407.7" fill="#5A5A5A" stroke="#141414" stroke-width="1"/><polygon points="399.5,401.0 410.1,384.2 409.1,383.5 398.1,400.1" fill="#5A5A5A" stroke="#141414" stroke-width="1"/><polygon points="341.2,367.0 355.7,372.5 356.1,371.8 341.5,365.7" fill="#5A5A5A" stroke="#141414" stroke-width="1"/><polygon points="415.9,338.8 435.8,339.4 435.7,341.0 415.8,340.0" fill="#141414" stroke="#141414" stroke-width="1"/><polygon points="411.5,315.6 423.7,305.9 424.6,306.9 411.9,316.3" fill="#141414" stroke="#141414" stroke-width="1"/><polygon points="363.8,339.6 373.3,357.0 374.4,356.5 365.2,338.8" fill="#5A5A5A" stroke="#141414" stroke-width="1"/><polygon points="434.6,407.7 432.4,392.1 431.6,392.1 433.2,408.0" fill="#5A5A5A" stroke="#141414" stroke-width="1"/><polygon points="400.9,401.9 411.1,384.8 410.1,384.2 399.5,401.0" fill="#5A5A5A" stroke="#141414" stroke-width="1"/><polygon points="341.5,365.7 356.1,371.8 356.6,371.1 342.0,364.3" fill="#5A5A5A" stroke="#141414" stroke-width="1"/><polygon points="416.0,337.6 435.8,337.7 435.8,339.4 415.9,338.8" fill="#141414" stroke="#141414" stroke-width="1"/><polygon points="411.9,316.3 424.6,306.9 425.6,307.9 412.2,317.1" fill="#141414" stroke="#141414" stroke-width="1"/><polygon points="362.3,340.4 372.3,357.5 373.3,357.0 363.8,339.6" fill="#5A5A5A" stroke="#141414" stroke-width="1"/><polygon points="433.2,408.0 431.6,392.1 430.8,392.0 431.9,408.3" fill="#5A5A5A" stroke="#141414" stroke-width="1"/><polygon points="402.4,402.7 412.0,385.4 411.1,384.8 400.9,401.9" fill="#5A5A5A" stroke="#141414" stroke-width="1"/><polygon points="342.0,364.3 356.6,371.1 357.0,370.4 342.4,363.0" fill="#5A5A5A" stroke="#141414" stroke-width="1"/><polygon points="416.0,336.5 435.7,336.1 435.8,337.7 416.0,337.6" fill="#141414" stroke="#141414" stroke-width="1"/><polygon points="412.2,317.1 425.6,307.9 426.4,309.0 412.6,317.9" fill="#141414" stroke="#141414" stroke-width="1"/><polygon points="360.9,341.3 371.3,358.1 372.3,357.5 362.3,340.4" fill="#5A5A5A" stroke="#141414" stroke-width="1"/><polygon points="431.9,408.3 430.8,392.0 429.9,391.9 430.5,408.5" fill="#5A5A5A" stroke="#141414" stroke-width="1"/><polygon points="403.8,403.4 413.0,386.0 412.0,385.4 402.4,402.7" fill="#5A5A5A" stroke="#141414" stroke-width="1"/><polygon points="342.4,363.0 357.0,370.4 357.6,369.7 343.0,361.7" fill="#5A5A5A" stroke="#141414" stroke-width="1"/><polygon points="416.0,335.3 435.6,334.4 435.7,336.1 416.0,336.5" fill="#141414" stroke="#141414" stroke-width="1"/><polygon points="412.6,317.9 426.4,309.0 427.3,310.1 412.9,318.7" fill="#141414" stroke="#141414" stroke-width="1"/><polygon points="359.6,342.2 370.3,358.7 371.3,358.1 360.9,341.3" fill="#5A5A5A" stroke="#141414" stroke-width="1"/><polygon points="430.5,408.5 429.9,391.9 429.0,391.8 429.1,408.6" fill="#5A5A5A" stroke="#141414" stroke-width="1"/><polygon points="405.3,404.1 414.0,386.5 413.0,386.0 403.8,403.4" fill="#5A5A5A" stroke="#141414" stroke-width="1"/><polygon points="343.0,361.7 357.6,369.7 358.1,369.0 343.6,360.4" fill="#5A5A5A" stroke="#141414" stroke-width="1"/><polygon points="416.0,334.2 435.5,332.8 435.6,334.4 416.0,335.3" fill="#141414" stroke="#141414" stroke-width="1"/><polygon points="412.9,318.7 427.3,310.1 428.1,311.3 413.3,319.5" fill="#141414" stroke="#141414" stroke-width="1"/><polygon points="358.3,343.1 369.4,359.2 370.3,358.7 359.6,342.2" fill="#5A5A5A" stroke="#141414" stroke-width="1"/><polygon points="429.1,408.6 429.0,391.8 428.2,391.7 427.6,408.7" fill="#5A5A5A" stroke="#141414" stroke-width="1"/><polygon points="406.8,404.8 415.0,387.1 414.0,386.5 405.3,404.1" fill="#5A5A5A" stroke="#141414" stroke-width="1"/><polygon points="343.6,360.4 358.1,369.0 358.7,368.3 344.2,359.1" fill="#5A5A5A" stroke="#141414" stroke-width="1"/><polygon points="415.9,333.1 435.3,331.2 435.5,332.8 416.0,334.2" fill="#141414" stroke="#141414" stroke-width="1"/><polygon points="413.3,319.5 428.1,311.3 428.9,312.5 413.6,320.3" fill="#141414" stroke="#141414" stroke-width="1"/><polygon points="357.0,344.1 368.4,359.8 369.4,359.2 358.3,343.1" fill="#5A5A5A" stroke="#141414" stroke-width="1"/><polygon points="427.6,408.7 428.2,391.7 427.3,391.5 426.2,408.8" fill="#5A5A5A" stroke="#141414" stroke-width="1"/><polygon points="408.2,405.4 416.0,387.6 415.0,387.1 406.8,404.8" fill="#5A5A5A" stroke="#141414" stroke-width="1"/><polygon points="344.2,359.1 358.7,368.3 359.3,367.6 344.9,357.9" fill="#5A5A5A" stroke="#141414" stroke-width="1"/><polygon points="415.9,332.0 435.1,329.6 435.3,331.2 415.9,333.1" fill="#141414" stroke="#141414" stroke-width="1"/><polygon points="413.6,320.3 428.9,312.5 429.6,313.8 413.9,321.2" fill="#141414" stroke="#141414" stroke-width="1"/><polygon points="355.8,345.1 367.5,360.4 368.4,359.8 357.0,344.1" fill="#5A5A5A" stroke="#141414" stroke-width="1"/><polygon points="426.2,408.8 427.3,391.5 426.4,391.3 424.7,408.8" fill="#5A5A5A" stroke="#141414" stroke-width="1"/><polygon points="409.7,405.9 416.9,388.0 416.0,387.6 408.2,405.4" fill="#5A5A5A" stroke="#141414" stroke-width="1"/><polygon points="344.9,357.9 359.3,367.6 359.9,367.0 345.7,356.6" fill="#5A5A5A" stroke="#141414" stroke-width="1"/><polygon points="415.8,330.9 434.8,328.1 435.1,329.6 415.9,332.0" fill="#141414" stroke="#141414" stroke-width="1"/><polygon points="413.9,321.2 429.6,313.8 430.3,315.1 414.1,322.1" fill="#141414" stroke="#141414" stroke-width="1"/><polygon points="354.6,346.2 366.7,361.1 367.5,360.4 355.8,345.1" fill="#5A5A5A" stroke="#141414" stroke-width="1"/><polygon points="424.7,408.8 426.4,391.3 425.5,391.1 423.2,408.7" fill="#5A5A5A" stroke="#141414" stroke-width="1"/><polygon points="411.2,406.4 417.9,388.5 416.9,388.0 409.7,405.9" fill="#5A5A5A" stroke="#141414" stroke-width="1"/><polygon points="415.7,329.9 434.5,326.5 434.8,328.1 415.8,330.9" fill="#141414" stroke="#141414" stroke-width="1"/><polygon points="345.7,356.6 359.9,367.0 360.5,366.3 346.5,355.3" fill="#5A5A5A" stroke="#141414" stroke-width="1"/><polygon points="414.1,322.1 430.3,315.1 431.0,316.4 414.4,323.0" fill="#141414" stroke="#141414" stroke-width="1"/><polygon points="353.4,347.2 365.8,361.7 366.7,361.1 354.6,346.2" fill="#5A5A5A" stroke="#141414" stroke-width="1"/><polygon points="423.2,408.7 425.5,391.1 424.6,390.9 421.7,408.6" fill="#5A5A5A" stroke="#141414" stroke-width="1"/><polygon points="412.7,406.9 418.9,388.9 417.9,388.5 411.2,406.4" fill="#5A5A5A" stroke="#141414" stroke-width="1"/><polygon points="415.6,328.8 434.1,325.0 434.5,326.5 415.7,329.9" fill="#141414" stroke="#141414" stroke-width="1"/><polygon points="346.5,355.3 360.5,366.3 361.2,365.6 347.3,354.1" fill="#5A5A5A" stroke="#141414" stroke-width="1"/><polygon points="414.4,323.0 431.0,316.4 431.6,317.8 414.6,323.9" fill="#141414" stroke="#141414" stroke-width="1"/><polygon points="352.3,348.3 365.0,362.3 365.8,361.7 353.4,347.2" fill="#5A5A5A" stroke="#141414" stroke-width="1"/><polygon points="421.7,408.6 424.6,390.9 423.6,390.6 420.3,408.5" fill="#5A5A5A" stroke="#141414" stroke-width="1"/><polygon points="414.2,407.3 419.8,389.3 418.9,388.9 412.7,406.9" fill="#5A5A5A" stroke="#141414" stroke-width="1"/><polygon points="347.3,354.1 361.2,365.6 361.9,364.9 348.2,352.9" fill="#5A5A5A" stroke="#141414" stroke-width="1"/><polygon points="415.4,327.8 433.7,323.5 434.1,325.0 415.6,328.8" fill="#141414" stroke="#141414" stroke-width="1"/><polygon points="414.6,323.9 431.6,317.8 432.2,319.2 414.8,324.9" fill="#141414" stroke="#141414" stroke-width="1"/><polygon points="351.2,349.4 364.2,363.0 365.0,362.3 352.3,348.3" fill="#5A5A5A" stroke="#141414" stroke-width="1"/><polygon points="420.3,408.5 423.6,390.6 422.7,390.3 418.8,408.2" fill="#5A5A5A" stroke="#141414" stroke-width="1"/><polygon points="415.7,407.7 420.8,389.7 419.8,389.3 414.2,407.3" fill="#5A5A5A" stroke="#141414" stroke-width="1"/><polygon points="415.2,326.8 433.3,322.0 433.7,323.5 415.4,327.8" fill="#141414" stroke="#141414" stroke-width="1"/><polygon points="348.2,352.9 361.9,364.9 362.6,364.3 349.2,351.7" fill="#5A5A5A" stroke="#141414" stroke-width="1"/><polygon points="414.8,324.9 432.2,319.2 432.8,320.6 415.1,325.8" fill="#141414" stroke="#141414" stroke-width="1"/><polygon points="350.1,350.6 363.4,363.6 364.2,363.0 351.2,349.4" fill="#5A5A5A" stroke="#141414" stroke-width="1"/><polygon points="418.8,408.2 422.7,390.3 421.7,390.0 417.3,408.0" fill="#5A5A5A" stroke="#141414" stroke-width="1"/><polygon points="417.3,408.0 421.7,390.0 420.8,389.7 415.7,407.7" fill="#5A5A5A" stroke="#141414" stroke-width="1"/><polygon points="349.2,351.7 362.6,364.3 363.4,363.6 350.1,350.6" fill="#5A5A5A" stroke="#141414" stroke-width="1"/><polygon points="415.1,325.8 432.8,320.6 433.3,322.0 415.2,326.8" fill="#141414" stroke="#141414" stroke-width="1"/>
  <g transform="translate(209.00,260.00) scale(0.9800,0.9800) rotate(-60)">
<polyline points="-50,22 -72,12 -84,-12 -70,-30" fill="none" stroke="#141414" stroke-width="12.20" stroke-linecap="round" stroke-linejoin="round"/>
<ellipse cx="-72" cy="-32" rx="11.60" ry="11.60" fill="#141414"/>
<rect x="-41.60" y="15.40" width="19.20" height="45.20" rx="8.60" fill="#141414"/>
<rect x="22.40" y="15.40" width="19.20" height="45.20" rx="8.60" fill="#141414"/>
<ellipse cx="-6" cy="2" rx="59.60" ry="33.60" fill="#141414"/>
<ellipse cx="-40" cy="2" rx="29.60" ry="30.60" fill="#141414"/>
<ellipse cx="39" cy="0" rx="29.60" ry="28.60" fill="#141414"/>
<rect x="-50.60" y="13.40" width="21.20" height="47.20" rx="8.60" fill="#141414"/>
<ellipse cx="-40" cy="58" rx="13.60" ry="9.60" fill="#141414"/>
<rect x="37.40" y="13.40" width="21.20" height="47.20" rx="8.60" fill="#141414"/>
<ellipse cx="48" cy="58" rx="13.60" ry="9.60" fill="#141414"/>
<polyline points="-50,22 -72,12 -84,-12 -70,-30" fill="none" stroke="#BE2D20" stroke-width="7.00" stroke-linecap="round" stroke-linejoin="round"/>
<ellipse cx="-72" cy="-32" rx="9.00" ry="9.00" fill="#BE2D20"/>
<rect x="-39.00" y="18.00" width="14.00" height="40.00" rx="6.00" fill="#8E2118"/>
<rect x="25.00" y="18.00" width="14.00" height="40.00" rx="6.00" fill="#8E2118"/>
<ellipse cx="-6" cy="2" rx="57.00" ry="31.00" fill="#BE2D20"/>
<ellipse cx="-40" cy="2" rx="27.00" ry="28.00" fill="#BE2D20"/>
<ellipse cx="39" cy="0" rx="27.00" ry="26.00" fill="#BE2D20"/>
<rect x="-48.00" y="16.00" width="16.00" height="42.00" rx="6.00" fill="#BE2D20"/>
<ellipse cx="-40" cy="58" rx="11.00" ry="7.00" fill="#BE2D20"/>
<rect x="40.00" y="16.00" width="16.00" height="42.00" rx="6.00" fill="#BE2D20"/>
<ellipse cx="48" cy="58" rx="11.00" ry="7.00" fill="#BE2D20"/>
<g transform="rotate(30 40 -4)">
<polygon points="94.60,-16.00 79.35,-4.67 82.12,14.12 63.33,11.35 52.00,26.60 40.67,11.35 21.88,14.12 24.65,-4.67 9.40,-16.00 24.65,-27.33 21.88,-46.12 40.67,-43.35 52.00,-58.60 63.33,-43.35 82.12,-46.12 79.35,-27.33" fill="#141414"/>
<ellipse cx="58" cy="-18" rx="22.60" ry="22.60" fill="#141414"/>
<ellipse cx="76" cy="-10" rx="22.60" ry="18.60" fill="#141414"/>
<ellipse cx="46" cy="-44" rx="10.60" ry="12.60" fill="#141414"/>
<polygon points="92.00,-16.00 76.94,-5.67 80.28,12.28 62.33,8.94 52.00,24.00 41.67,8.94 23.72,12.28 27.06,-5.67 12.00,-16.00 27.06,-26.33 23.72,-44.28 41.67,-40.94 52.00,-56.00 62.33,-40.94 80.28,-44.28 76.94,-26.33" fill="#961E16"/>
<ellipse cx="58" cy="-18" rx="20.00" ry="20.00" fill="#BE2D20"/>
<ellipse cx="76" cy="-10" rx="20.00" ry="16.00" fill="#BE2D20"/>
<ellipse cx="46" cy="-44" rx="8.00" ry="10.00" fill="#BE2D20"/>
<ellipse cx="94" cy="-10" rx="4.00" ry="4.00" fill="#141414"/>
<ellipse cx="66" cy="-22" rx="3.20" ry="3.20" fill="#141414"/>
<polyline points="94,-6 78,-1" fill="none" stroke="#141414" stroke-width="2.00" stroke-linecap="round" stroke-linejoin="round"/>
</g></g><g transform="translate(591.00,260.00) scale(-0.9800,0.9800) rotate(-60)">
<polyline points="-50,22 -72,12 -84,-12 -70,-30" fill="none" stroke="#141414" stroke-width="12.20" stroke-linecap="round" stroke-linejoin="round"/>
<ellipse cx="-72" cy="-32" rx="11.60" ry="11.60" fill="#141414"/>
<rect x="-41.60" y="15.40" width="19.20" height="45.20" rx="8.60" fill="#141414"/>
<rect x="22.40" y="15.40" width="19.20" height="45.20" rx="8.60" fill="#141414"/>
<ellipse cx="-6" cy="2" rx="59.60" ry="33.60" fill="#141414"/>
<ellipse cx="-40" cy="2" rx="29.60" ry="30.60" fill="#141414"/>
<ellipse cx="39" cy="0" rx="29.60" ry="28.60" fill="#141414"/>
<rect x="-50.60" y="13.40" width="21.20" height="47.20" rx="8.60" fill="#141414"/>
<ellipse cx="-40" cy="58" rx="13.60" ry="9.60" fill="#141414"/>
<rect x="37.40" y="13.40" width="21.20" height="47.20" rx="8.60" fill="#141414"/>
<ellipse cx="48" cy="58" rx="13.60" ry="9.60" fill="#141414"/>
<polyline points="-50,22 -72,12 -84,-12 -70,-30" fill="none" stroke="#4A7837" stroke-width="7.00" stroke-linecap="round" stroke-linejoin="round"/>
<ellipse cx="-72" cy="-32" rx="9.00" ry="9.00" fill="#4A7837"/>
<rect x="-39.00" y="18.00" width="14.00" height="40.00" rx="6.00" fill="#375A29"/>
<rect x="25.00" y="18.00" width="14.00" height="40.00" rx="6.00" fill="#375A29"/>
<ellipse cx="-6" cy="2" rx="57.00" ry="31.00" fill="#4A7837"/>
<ellipse cx="-40" cy="2" rx="27.00" ry="28.00" fill="#4A7837"/>
<ellipse cx="39" cy="0" rx="27.00" ry="26.00" fill="#4A7837"/>
<rect x="-48.00" y="16.00" width="16.00" height="42.00" rx="6.00" fill="#4A7837"/>
<ellipse cx="-40" cy="58" rx="11.00" ry="7.00" fill="#4A7837"/>
<rect x="40.00" y="16.00" width="16.00" height="42.00" rx="6.00" fill="#4A7837"/>
<ellipse cx="48" cy="58" rx="11.00" ry="7.00" fill="#4A7837"/>
<g transform="rotate(30 40 -4)">
<polygon points="94.60,-16.00 79.35,-4.67 82.12,14.12 63.33,11.35 52.00,26.60 40.67,11.35 21.88,14.12 24.65,-4.67 9.40,-16.00 24.65,-27.33 21.88,-46.12 40.67,-43.35 52.00,-58.60 63.33,-43.35 82.12,-46.12 79.35,-27.33" fill="#141414"/>
<ellipse cx="58" cy="-18" rx="22.60" ry="22.60" fill="#141414"/>
<ellipse cx="76" cy="-10" rx="22.60" ry="18.60" fill="#141414"/>
<ellipse cx="46" cy="-44" rx="10.60" ry="12.60" fill="#141414"/>
<polygon points="92.00,-16.00 76.94,-5.67 80.28,12.28 62.33,8.94 52.00,24.00 41.67,8.94 23.72,12.28 27.06,-5.67 12.00,-16.00 27.06,-26.33 23.72,-44.28 41.67,-40.94 52.00,-56.00 62.33,-40.94 80.28,-44.28 76.94,-26.33" fill="#2E5426"/>
<ellipse cx="58" cy="-18" rx="20.00" ry="20.00" fill="#4A7837"/>
<ellipse cx="76" cy="-10" rx="20.00" ry="16.00" fill="#4A7837"/>
<ellipse cx="46" cy="-44" rx="8.00" ry="10.00" fill="#4A7837"/>
<ellipse cx="94" cy="-10" rx="4.00" ry="4.00" fill="#141414"/>
<ellipse cx="66" cy="-22" rx="3.20" ry="3.20" fill="#141414"/>
<polyline points="94,-6 78,-1" fill="none" stroke="#141414" stroke-width="2.00" stroke-linecap="round" stroke-linejoin="round"/>
</g></g>
</svg>
